<svg xmlns="http://www.w3.org/2000/svg" width="4000" height="4149.333" version="1.0" viewBox="0 0 3000 3112"><path d="M1151 12.7c-.8.3-8.2 3.6-16.5 7.3-24 10.9-32.9 14-43 15-19.4 2-28.5 5.8-28.5 11.8 0 1.4-1.6 5.9-3.6 10-3.6 7.6-3.6 7.5-1.8 16.3.4 1.8-.4 4.6-2.5 8.7-2.9 5.8-3.1 6.8-3.1 17.4 0 8.3-.5 13.1-2.1 18.7-1.8 6.2-2 9.3-1.6 19 .2 6.4 1.4 16.5 2.6 22.6 1.9 9.7 2 13.1 1.5 29-.7 20.1.8 52.2 3.1 66.1 1.2 7.5 1.4 17.5 1 54.8-.5 44.3-.5 45.9-3 56.5-2.6 11.6-3.1 22.6-1.6 44.7.5 9 .9 10.5 3.5 14.3l3 4.3-.3 21.1c-.1 11.6-.7 24.5-1.2 28.7-1.9 14.8-2.8 37.8-2.3 56 .4 14.2.2 21-1.1 29.5-.8 6-2 22.9-2.5 37.5-.5 14.6-1.1 30.4-1.4 35.3-.2 4.8-.1 8.5.4 8.2.4-.3 1.8 2 3.1 5 2.6 6.2 3.9 7 3.9 2.2.1-5 7.2-30.2 10.4-36.5 1.6-3.2 3.1-19.3 3-31-.1-7.2.1-8.3 1.5-8 2.2.5 3.1 7.7 1.9 16.3-2.9 21.5-2 35.6 2.9 46.7 1.5 3.4 2.3 6.8 2.1 8.3-.3 1.4-.2 2.8.2 3 .5.3 3.4-1.5 6.7-4 10.4-8.1 13.9-10.4 19.4-12.4 7.2-2.8 8.7-2.7 9.5.6 1.1 5.3 1 5.2 4.8 4.2 3.3-.9 7.8-3.2 30.6-15.7 4.1-2.2 9.6-4.6 12.2-5.2 4.6-1.2 4.6-1.2 5.1-5.8.2-2.6 1.4-7.2 2.6-10.2 1.1-3 2.1-6.9 2.1-8.6 0-2.4.8-3.8 3.4-5.8 1.9-1.4 3.6-2.6 3.8-2.6.2 0-.1 4.9-.6 11-.8 9.5-.7 11.3.8 13.5 1.6 2.4 2.1 2.5 6.9 1.9 8-.9 8-.9 6.2-4.3-.8-1.7-1.5-3.3-1.5-3.6 0-.4 2.4-.5 5.3-.4l5.2.3.3-3.4c.2-1.9 1-5.7 1.8-8.3 1.1-3.1 1.4-6.6 1-10-.3-2.9-.8-10.6-1.2-17.2-.5-11.3-.4-12.4 2.1-18.9 2.5-6.7 2.6-7.5 2.9-35 .2-15.4.7-28.8 1-29.6.9-2.1 16.8-11.9 21.3-13.2 5.3-1.5 10 .3 18 6.7 3.8 3.1 8.3 5.8 10.1 6.1 6.1 1.2 14-.3 19-3.4 2.6-1.7 8.9-5.2 14.1-7.8l9.4-4.9 10.1.1c5.5 0 16 .6 23.1 1.2 17.8 1.6 29 2.1 42.6 2.2h11.6l.6 4.2c2.1 16.7 2.9 21.6 3.9 23.5.7 1.4.8 4.7.4 8.8-.4 3.6-.4 14.9 0 25.1l.7 18.4 2.6.6c1.4.2 4.9 1.1 7.6 1.8 8.8 2.5 13.8 2.7 21.4 1.1 8.4-1.8 14.8-1.9 21.1-.4 2.5.6 8 1.1 12.3 1.2 6.3.1 8.2-.3 10.5-2 1.5-1.1 5.1-2.3 8.2-2.6 3.1-.4 8.8-1.8 12.8-3.2 4.9-1.7 9.3-2.5 14-2.5 6.2 0 7.1-.3 9.5-2.8l2.8-2.9-4.2-1.8c-7.3-3.3-7.5-4.1-6.9-27.5 1-41.9.6-51.3-2.5-63-2.7-10.3-2.8-11.1-3.5-49.5-.7-38.2-.8-39.4-3.9-56-3.8-19.8-4-27.7-2.7-82 1-41.1 0-59.3-4.8-86.2-1.9-10.5-3.9-24.3-4.6-30.9-.6-6.5-1.7-15.7-2.5-20.4-3.2-19-3.7-24.6-4.5-49.5-.4-14.3-1.1-27-1.5-28.2-.6-1.8-1.7-2.2-7.8-2.8-5.2-.5-9.1-1.7-13.9-4.1-3.7-1.9-10.8-4.4-15.8-5.6-8.7-2.1-9.3-2.1-14.4-.5-5.2 1.7-5.5 1.7-10.1-.3-2.6-1.1-4.9-2.8-5.2-3.9-.4-1.4-1.8-2-6.5-2.5-16-1.6-37.3-.4-54.5 3.2-2.3.5-6.3.5-9 .1-2.6-.4-11.1-.8-18.9-.8-7.7-.1-19-.8-25-1.6-12.8-1.8-25-1-46.4 3-7.3 1.4-14.9 2.5-16.9 2.5-4.2 0-14.8-2.8-27-7.1-5.9-2.1-11.1-3.1-17.5-3.5-5-.3-10.9-1.2-13.1-1.9-9.6-3.4-19.2-5-22.5-3.8zm148.8 114c8.5 4.6 8.8 4.7 20.7 5.4 18.6 1.2 18 1 19.4 7.4.7 3.3 2 6 3.2 6.9 1.6 1.1 2.5 4.4 4.6 18.7 2.5 16 2.7 19.9 2.8 49.9 0 31.1.1 32.8 2.3 38.4 2.6 7 2.8 13.9.7 23.1-1.8 7.5-1.4 11.3.4 5 3.7-12.7 4.9-70.5 1.8-89.9-.9-6-1.5-11.1-1.3-11.3.2-.2 1.8 1.8 3.6 4.6 1.8 2.7 4 5.1 5 5.4 1.5.4 1.8 2.9 2.3 27.3.7 30 2.5 48.7 6.2 63.8 1.8 7.6 2.5 13 2.6 22.1.1 11.4-.1 12.3-3 18.7-1.8 4-3.1 8.4-3.1 10.8v4h-4.9c-4.7 0-5.2.3-9.3 4.9l-4.3 4.9-11 .4c-10.5.4-11.4.6-18.5 4.4l-7.5 3.9-19.9.3c-11 .2-20.9.1-22.1-.2-1.1-.3-4.5-2.3-7.4-4.6-5.9-4.4-8.4-4.9-12-2.4-2.2 1.6-2.4 1.5-5.9-1.8-2.1-1.9-5.9-5.1-8.5-7.2-4.4-3.5-5.2-3.8-9.2-3.3-5 .7-4.2 2.3-6.5-12.3-.6-3.6-2.8-11.7-4.8-18l-3.7-11.5.4-20c.3-11 .5-32.2.5-47 .1-25.4 0-27.5-2.3-35.5-1.8-6.7-2.2-10.2-1.9-16.6.5-9.8 1.9-12.4 8.9-16.2 7-3.7 10.9-7 10.9-9.2 0-1 .9-4.3 2.1-7.3 1.9-5.1 2.4-5.5 5.9-6.1 2.1-.3 4-1.3 4.4-2.1.4-1.1 2.2-1.5 6.9-1.5 5 0 9.5-1.1 22.2-5.5 8.8-3 17.1-5.5 18.3-5.5 1.3 0 6.3 2.1 11 4.7zM567.7 27.8c-12.1.9-22.1 1.3-22.4.8-.3-.4-.9-.3-1.2.3-.4.6-4.4 1.6-8.8 2.3l-8.2 1.3 5 6.6 4.9 6.7-4.1 9.6c-4.1 9.4-5.4 11.1-6.5 8.1-.7-1.7-5.6-2-8.5-.5-2.3 1.3-4.9 6.1-4.9 9.1 0 1.3 1.5 3.6 3.4 5.4 2.1 1.9 3.9 4.8 4.6 7.6 1.6 5.6.8 19.7-2 34.4-1.1 6-2.2 14.8-2.3 19.5-.2 8.1 0 9 3.8 17l4 8.5v17c0 9.3-1.1 31.2-2.4 48.5-2.2 28.9-2.3 32.9-1.2 49.5 2.9 43.5 3.4 54.3 3.5 76.5.1 23.3.1 23.6-3.7 42.4-4.5 22.9-6.4 37.4-7.2 56.6-.9 21.2-.1 25.5 9 43.5l7.5 15v24c0 13.6.6 29.3 1.4 36.2 1.2 10.4 1.2 13 0 18-2 8.2-2 19.8 0 25.2.9 2.4 1.6 7.3 1.6 11 0 5.3.6 7.8 3 12.6 3.5 7 3.6 9.9 1 22-1 4.9-3 14.2-4.4 20.5-3.4 15.9-3.9 22.4-2.7 37.5.5 7.1 1.5 19.7 2.1 28 3.1 43.1 2.8 41.3 7.1 46.1 1.9 2 1.9 2.3-1.2 16.5-5.3 25.4-8.9 57.9-8.9 81.7v20.7l3.6 7.4c3.9 8 6.4 19.7 6.4 29.8 0 3.4-1.1 12.3-2.5 19.7-3.5 19-3.4 23.7 1 31.8l3.4 6.5-4.1 8.1c-4.9 9.5-5.6 15.2-5.7 43.4-.1 11.2-.6 20.5-1.6 25.5-2.1 10.7-1.9 17.6.4 22.2 2.8 5.4 13.5 14.9 23 20.5 5.2 3.1 8.6 5.8 9.2 7.3 1.4 3.7-.7 10.9-5.6 19.3-7.2 12.5-7.7 15.1-8.2 44-.6 30-.1 33.6 6.5 47.4l4.7 10.1-.1 13c0 7.1-.4 16.5-.9 20.8-1.3 12.8 3.2 25.6 7.1 20.2 1.2-1.6 1.3-1.6 1.8.6 1.2 5.3 5.6 39.4 7.1 54.8.8 9.4 1.5 26.8 1.5 40.5 0 15.1.4 23.5 1 22.5 2.6-4.5 5-17.2 6-32.2 2.8-43 4-68.2 4-84.1v-17.5l5.3-.3 5.2-.3-.3-5c-.2-2.8-1-7.5-1.8-10.5s-1.9-12-2.6-19.9l-1.2-14.3 2.8-8.2c3.8-11.2 10.8-25 19.5-38.4 4-6.2 7.8-12.9 8.5-15l1.3-3.6.6 3.3c.4 1.9.7 4.4.7 5.7 0 3.1 2.8 11.5 4.4 13.2 1 1 1.7-.3 3.4-6.6 2.8-10 2.8-15.8 0-26.9-1.6-6.4-2.2-12-2.2-20.8-.1-11.8 0-12.2 3.8-21 5.6-13.3 7.7-20.2 8.3-28.1.5-6.8.4-7.4-3.8-16.5l-4.4-9.4-.3-15.3c-.2-8.4.1-19.9.7-25.6 1.1-10.7 1.7-12.6 10.9-35.1 2.7-6.6 6.1-15.7 7.6-20.2s3.9-9.9 5.4-12.1c22.7-33 31.5-43 47.2-54.2 5.2-3.7 12.6-9.5 16.4-12.9 3.8-3.4 13.7-10.8 22-16.5 8.3-5.8 20-14.8 26-20.1 16.2-14.4 20.2-17.3 30.3-22.1 9-4.3 9.7-4.9 33-28.2 20.6-20.6 35.1-33.7 53.3-48.4 7.5-6 25.6-16.5 32.5-18.8 7.4-2.5 14.1-7.7 20.6-16 2.3-3 5.9-7.3 8-9.5 2.4-2.6 4.7-6.5 6.3-11 1.3-3.9 3.6-10.2 5-14 1.4-3.9 3-8.9 3.6-11.2.6-2.3 2.6-6.1 4.5-8.5 8.2-10.2 8.4-10.7 10-23.4 1.1-8.5 1.5-22.1 1.5-48.2 0-34.4.1-36.5 2-40.2 2-3.8 1.6-5.2-.7-2.9-1.5 1.5-2.8-7.8-2.7-18.6.1-7.3.5-8.9 4.9-18.5 6.3-13.9 6.7-18.6 2.7-34l-3-11.5 1.8-7c2.4-8.9 2.5-20.5.4-25.3-3.4-7.8-5-10.3-7.1-11.8-2.1-1.3-2.3-2.3-2.3-9.3 0-7.4-.2-8.1-3.6-12.7-5.8-7.8-11.3-13.1-15.5-14.9-2.1-1-3.9-2.2-3.9-2.6 0-.5-1.3-1.5-3-2.4-1.6-.8-3.7-2.9-4.5-4.5-1.1-2.2-2.3-3-4.2-3-1.6 0-3.9-1.2-5.6-2.8-2.6-2.5-3.4-2.7-11.5-2.7h-8.7l-.5-5.5c-.3-3.1-1.3-6.8-2.2-8.3-4.7-7-.6-16.5 13.5-31.4l9.7-10.4v-8.4c0-7.9.2-8.6 3-11.8 3.1-3.6 3.2-5.9.1-10.7-1.2-1.9-1.6-5.2-1.6-15.1v-12.7l4.3-8.2c2.3-4.5 4.2-8.8 4.2-9.7 0-.8-1.1-2.8-2.5-4.5-2-2.4-2.5-4-2.5-8.8 0-5-.3-6-2-6.5-3.7-1.2-4-3.6-1.3-9.3 4.8-10.1 4.2-29.1-1.2-36.9-2.3-3.5-2.5-4.5-2.5-16.4 0-10-.4-14.1-2-19.1-1.1-3.4-2.3-8.6-2.6-11.3-.9-8-3.9-13.7-8.4-16.3-4.7-2.7-8.2-7.6-14.4-20.4-5.1-10.7-6.6-12.2-18.6-18.4-9-4.7-23.5-18.5-27.4-26.2-2.7-5.3-4.2-6.2-11.4-6.2-3.5 0-4.5-.4-4.9-2-.3-1.1-2-2.4-4.2-3.1-2-.6-8.3-3.4-14-6.3l-10.4-5.1h-12.1c-14.2 0-50.3 1.9-80.1 4.1-26.1 2-42.4 1.4-59-2.2-11.2-2.4-14-2.6-43-2.9-22.2-.2-37.2.1-52.8 1.3zm188.9 122.1c3.2.4 6.3 1.7 8.2 3.3 2.9 2.5 3.2 2.5 8.1 1.2 2.8-.7 8.1-1.4 11.8-1.6l6.8-.3 3.3 6.2c2 3.9 5.4 8 8.7 11 5.5 4.7 5.5 4.7 5.5 10.4 0 6.9 1 9.7 5.2 15 4.3 5.3 4.3 10-.1 16.7-1.7 2.7-3.1 5.7-3.1 6.7 0 1.1 2 3.8 4.5 6.1 4.4 4 4.5 4.2 4.5 10.5 0 3.6-.7 9.1-1.5 12.2-2.2 8.6-1.9 11.4 1.5 15.4 3.9 4.4 3.8 7.2-.5 18.3-3.9 9.9-4.1 11.4-2 15 2.2 3.8 1.8 6.7-1.6 11.6-4.4 6.4-5.2 16.7-1.9 25.3 2.5 6.7 2.2 10.8-1.1 17.3-1 2-1.9 4.6-1.9 5.6 0 1.1-2.5 3.9-5.9 6.7-3.7 2.9-6.8 6.4-8 8.9-1.9 4.2-2 4.3-10.3 6.1-11.4 2.4-19.8 5-29.4 9.1-8 3.4-8.3 3.5-15.5 2.5-12.2-1.7-20.1-4.4-28-9.7-4.1-2.7-14.5-8.3-23.2-12.4-9.6-4.6-15.9-8.2-16.3-9.2-.3-1-1.7-3.2-3.2-5l-2.7-3.2-.3-30.5c-.2-16.8-.4-34.9-.4-40.1-.2-11 1.2-15.9 7.8-29.2 5.4-10.7 5.6-14.5 1.3-20.8-8.7-12.9-12.4-24.6-11.6-36.9.2-4.7 1.3-10.9 2.4-13.6l1.8-5 6-.8c9.1-1.3 10.1-2 12-7.6 2-6.2 3.5-7.5 7.8-6.7 2.8.5 4.4-.2 11.7-5l8.5-5.7 18 .7c9.9.4 20.3 1 23.1 1.5zm39.3 326.2c5.3 3.4 10.8 7.2 12.3 8.6 1.7 1.7 4.2 2.7 7.2 3 4.3.5 4.6.7 6 5.1 2.4 7 1.9 14.7-2.5 33.9-1.4 6.5-1.1 12 1.1 16.3 2.7 5.3 2.5 11.8-.5 22-3.1 10.2-2.7 13.1 2.7 20.2l4 5.3-.6 7.8c-.5 7.5-.5 7.8 1.9 8.7 3.2 1.2 4.5 3.9 4.5 9.3 0 2.5.7 6.4 1.5 8.7 1.9 5.3 1.9 16 .2 20.3-2 4.8-16.5 22.6-22.5 27.6-6.8 5.6-7.8 7.6-9.1 19-1.8 14.4-3.4 17.1-11.2 18.6-2.1.4-6.9 3.3-12.4 7.7-9.8 7.7-21.1 13.7-27.4 14.5-3 .4-4.9 0-7.6-1.6-4.3-2.5-6.8-2.6-12.6-.6-3.1 1.1-5.1 1.3-7.3.6-1.7-.5-7.4-1.5-12.6-2.1-11-1.4-13-2.2-13-5.4 0-4.6-4.8-13-9.5-16.6-9.5-7.3-11.9-9.6-14.6-13.8-2.1-3.3-2.6-4.9-1.9-6.6.4-1.2 1.3-7.3 2-13.5 1.1-10.2 1-11.4-.5-13.1-1.5-1.6-1.6-3.5-1-15.2l.7-13.4-2.5-3c-3.6-4.3-4.7-7.6-4.7-14.2 0-3.5-.8-7.6-2.1-10.8-2.1-4.9-2.1-5.3-.5-10.7.9-3.1 3.7-8.6 6.2-12.3 4.5-6.5 4.6-6.9 4-12.3-2-17.9-1.9-18.8.3-23.4 2.1-4.3 2.1-4.5.4-7.5l-1.8-3.1 3.8-3.9c2.1-2.1 4.8-6.5 6.1-9.6 1.6-3.9 3.4-6.4 5.4-7.6 3.6-2.2 9.8-8.3 16.9-16.7 4.6-5.3 6.1-6.4 12-8.4 4.7-1.6 9.2-2.3 14.3-2.4 7 0 8.6-.5 24.5-7.1 9.4-3.9 17.7-7.4 18.5-7.7.8-.3 3.9-.6 6.9-.6 5-.1 6.2.4 15 6zm-180.9 525c3.6 17.8 3.7 27.9.4 46.4-2.3 13.3-2.8 18.9-2.9 33 0 18.2.1 18.5 5.7 25.7 4.2 5.3 4.7 8.2 3.2 17.3-.9 5.4-1.1 12.7-.7 22.7.3 8.2.3 14.8 0 14.8-1.3 0-8.8-25.7-10.7-36.3-1-6.3-2.2-19.3-2.5-29.7-.8-21.5.9-71.7 3-90.5.8-7.2 1.5-13.4 1.5-13.9 0-2.7 1.2 1.2 3 10.5zM1837.5 31.4c-7.1 1.9-15.7 4.1-19 5.1-7.9 2.1-34.7 3.2-39.7 1.6-2-.7-8.5-1.6-14.5-2.1-5.9-.5-12.1-1.3-13.6-1.9-3.2-1.3-6.1-.7-13.2 2.4-3.7 1.6-8 2.3-16.5 2.8-6.3.4-12 .4-12.6-.1-.6-.4-1.6-1.7-2.3-3-.6-1.2-2-2.2-3-2.2-3.4 0-10.6 3.1-14.5 6.2-4.5 3.6-12.8 5.7-22.9 5.8-7.9 0-10-.8-11.6-4.7l-1.2-2.9-20.6-.2c-22.5-.2-28.8.6-27.8 3.8.5 1.7-.4 1.8-15.8 2.2-16.2.3-16.3.3-22.9 3.6-3.6 1.9-8.1 5-9.9 6.9l-3.4 3.4-.6 12.7c-.4 7-1 16.8-1.4 21.7l-.8 9 3.6 1.7c2 1 4.9 3.6 6.3 5.8 2.4 3.5 2.9 5.6 3.4 13.9 1 14 .8 13.8 13.7 14.3 8.5.4 11.8 1 15.8 2.8 4.7 2.2 6.1 2.3 25.8 2.3 19.4 0 20.9-.1 23-2 4.2-3.9 5.9-4.2 15.3-3.3 4.9.5 10.7 1.4 12.9 2.1 5 1.4 19.1.6 31.7-2 5.1-1.1 14.6-2.5 21-3.2 12.5-1.4 14.2-1.2 40.8 5.4 5.1 1.3 6.3 1.2 15.5-1 7-1.7 14-2.6 23.5-2.9l13.5-.5-2.9 2.4c-2.4 2.1-2.6 2.6-1.3 3.3 2.2 1.3 6 20.6 4.7 24-1.5 4-1.1 13.4.8 19 1.4 3.8 1.6 5.8.8 8-.6 1.9-.5 6.9.2 14.9.7 6.6 1.2 14.5 1.2 17.5s.7 11.3 1.5 18.5c.8 7.1 1.8 21.5 2.2 32 1 27.6 2.2 17.5 2.2-18.5.1-31.4-1.2-62-2.7-65.9-1-2.7.7-16.2 3.2-25.7.8-3.3 1.9-9.9 2.2-14.6l.7-8.6 4.1 1.3c2.3.7 8.3 2.6 13.4 4.1 5.7 1.7 9.2 3.2 9.2 4.1 0 .7-.9 1.3-2 1.3-1.7 0-2 .7-2 4.5s.6 5.1 3.8 8.6c3.7 4.1 3.7 4.3 4 13.8l.4 9.6-4.3 8c-4.3 7.9-4.4 8.1-4.3 17.6 0 10.1.3 10.9 7 22.4 2.8 4.9 2.9 5.3 2.8 19 0 7.7-.9 21-1.9 29.5-2.1 18.7-1.6 34.9 1.5 49.5 2.7 12.4 2.3 22.7-1.3 33.2-5.2 14.8-6 21-5.4 41.2.3 10.3 1.2 22.4 2.1 27.1 1.6 8.8 1.9 23.3.8 39.8l-.7 9.3-4.8 4.6c-4.8 4.5-5 4.6-10 4-2.9-.3-7.2-1.5-9.7-2.6-3.9-1.8-6.5-2.1-19.7-2.1-8.3 0-16.4-.5-17.9-1-1.4-.6-3.9-2.4-5.4-4-1.6-1.7-3.8-3-5.2-3-4 0-15.9 2.9-25.6 6.1-10.4 3.5-14.9 3.4-18.7-.1-1.7-1.6-3.5-2-8.3-2-5.3 0-7.4-.6-13.4-3.7l-7.1-3.8-15.3.3-15.2.2-4.1-3.4-4.1-3.4-14.4-.1c-8-.1-15.7.4-17.2.9-2.1.8-2.9.8-3.6-.2-1.4-2.1-7.6 5.8-9.5 12.1-1.5 5.2-1.4 5.8.5 12.5 1.2 3.9 2.3 9.9 2.6 13.2.3 5.5 2.6 12 5.6 16.4.5.8 1.4 2.7 2 4.2.9 2.6 1.4 2.8 6.4 2.8 5.9 0 6.6.8 6.6 7.6v3.1l10.7.6c5.8.4 17.2.7 25.2.7 17.1 0 18.4.5 25.6 9.8 2.6 3.3 5.7 6.4 7 7 4 1.8 13.6 4 20.5 4.7 3.6.4 8.8 1.3 11.5 2.1 2.8.7 10.4 1.6 17 2 6.6.3 15.4 1.3 19.5 2.1 5 1 16.7 1.8 34.6 2.2l27.1.6 4.8 3.7c2.6 2 6.4 4.3 8.4 4.9 2 .7 4 1.8 4.4 2.5 1.3 2.2 13.8 1.8 19.5-.5 9.3-3.8 9.7-3.7 15.4 2.4 6 6.5 7.7 6.8 18.3 2.9 3.9-1.3 10.2-2.7 14-3.1 4-.3 8.1-1.3 9.5-2.3 1.4-.9 8-4.5 14.6-7.9 15.6-8 17.8-10.3 17.9-17.9 0-5.7 0-5.7-3.2-6.2l-3.2-.5 2.6-6c1.5-3.3 4.1-7.9 5.9-10.3 3.4-4.6 4.6-10.4 5.9-28.7.6-7.7.4-9.6-1.3-13.4-1.7-3.8-1.9-5.8-1.5-16.5.5-11 .4-12.7-1.6-17-1.8-4.2-2.1-6.7-2.1-19.1 0-15.6-2.7-36.3-6.2-47.8-3.1-10.4-2.3-15.6 4.7-31.2 7.9-17.6 8-20.3.6-34-4.8-8.7-5.4-10.6-5.4-15.5.1-3.1 1-8.6 2.2-12.4 3-9.8 2.9-21.1-.5-31.7-2.5-7.9-2.5-8.6-1.4-17.8 1.1-9.5 1.1-9.7-2.5-23.1-4.9-18.2-5.7-31.8-2.5-40.5 5.6-15.4 9-26.1 10.2-31.5 1.2-5.9 1.2-6 4.8-6.2 5.5-.2 7.3.1 9.2 1.8 1.6 1.5 2.5 1.4 11-1 5.1-1.4 10.5-2.6 12.1-2.6h2.7v-31.8l3.6-6.9c3.5-6.6 3.6-7 3-14.3-2.2-24.6-2-23.5-6.9-30.8-2.5-3.7-5.4-8.4-6.4-10.5-1.7-3.9-1.7-3.9.7-5.8l2.5-2-5.5.6c-3 .3-7.2.8-9.2 1.1-3.4.5-3.8.3-3.8-1.5s-.6-2.1-4.2-2.1c-5.3 0-12.8-4.2-12.8-7.2 0-1.9-.4-2-5.2-1.4-2.9.4-14.7.9-26.1 1.2-16.8.3-21.5.1-24.4-1.1-2.8-1.2-8.4-1.5-26.2-1.5-23.4 0-28.4-.6-33.4-4.2-4.6-3.3-9.9-3.2-24.2.6zm59.4 143.5 5.2 13.4-1.1 7.4c-1.5 11.4-1.2 35.1.7 46.7.9 5.7 1.3 11.5.9 13s-2.8 4.8-5.4 7.3l-4.7 4.6-.6-22.9c-.3-12.6-1.1-26.2-1.9-30.2-1.1-6.1-1.1-10.3 0-24.5.7-9.5 1.1-20.2.8-24-.5-8-.4-7.9 6.1 9.2zm-5.5 94.6c-.4.8-.8 1.5-1 1.5-.2 0-.4-.7-.4-1.5s.4-1.5 1-1.5c.5 0 .7.7.4 1.5zm6.8 11.4c.4.9.7 3.6.7 6.1.1 2.5 1 9 2 14.5 3.1 15.9 1.2 26.2-7.3 38.5-4.2 6-4.5 9.2-2 19.7 1.2 5.3 1.4 8.8.8 15.8-.4 4.9-.8 17.1-.8 27l-.1 18.1 3.5 7.4c3.8 8.1 3.4 4.8 5.5 46.5.4 7.6.3 14.7-.3 17-.9 3.5-1 2.9-1.1-5.6l-.1-9.6-5.2-7.9-5.3-7.9V433.8l-4.2-3.6-4.2-3.7 1-11.5c.6-6.3 1.1-33.6 1.3-60.5l.2-49 2.5-8c1.4-4.4 3.4-12 4.4-16.8l1.8-8.8 3.1 3.7c1.7 2.1 3.4 4.5 3.8 5.3zM2272.5 35.6c-9.5 2.4-27.9 7.9-31.7 9.4-6.8 2.9-11.4 2.5-20.1-1.5-10-4.8-18.1-5.5-29.6-2.7-9 2.3-23.4 8.8-32.4 14.5-3.2 2.1-6 3.7-6.2 3.7-.3 0-2.4-1.4-4.7-3.1-3.1-2.2-4.9-2.8-6.7-2.4-3.7.9-19.2 11.9-27 19.1-3.7 3.5-8.1 6.8-9.6 7.4-1.6.6-8.3 1.5-14.9 2-13.9 1.1-17.5 2-22.6 5.5-4 2.8-5.1 4.5-7.5 11.5-2.1 6-4.1 8-8.3 8-4.4 0-11.2 6.3-11.2 10.5v2.7l4.3-3.8 4.2-3.9.7 6c.3 3.3.9 12.5 1.3 20.5.8 16.5-.2 27.8-4.3 48-2.2 11.4-2.7 16.1-2.7 30.5v17l5.3 9.6c6.4 11.9 6.6 14.7 1.7 26.8-4.1 10.4-5.2 19.4-3.6 30.1.6 4.1 1.8 22.8 2.6 41.5s1.7 40.3 2.1 48c.5 12.7.4 15.1-2 25.8-4.6 21-3 34.6 8.1 67.5 5.1 15.2 5 14.6 1.7 37.2-2.1 15-2.5 53.4-.5 63.5.8 4.6 1.4 15.7 1.5 32 .2 28.5-.7 25.2 10.6 42.1 9.3 13.8 13.9 23.2 15.6 32.1.8 4.1 1.4 7.7 1.4 7.9 0 1.3 9.5 10.4 15.5 14.9 5 3.7 7.7 6.5 9.4 9.9 2.6 5.3 6.5 8.1 12.3 9.1 4.2.7 5.8 2.7 5.8 7.2 0 1.5.9 4.7 2 7.1 1.8 3.9 2.7 4.7 11.4 8.7l9.4 4.4 3.3 6.7c3.7 7.8 10.2 14.7 17.4 18.6 7.8 4.1 41.3 15.8 48.5 16.8 3.6.5 8.9 1 11.8 1 4.3 0 5.7.5 7.5 2.4 4.8 5.1 12.5 15.4 15.6 20.8 5.6 9.9 7.5 11.2 23.9 16.4 26.5 8.3 33.2 12.6 33.2 21.2 0 1.8.7 4.8 1.5 6.8 1.7 4.2 8.3 7.5 18.8 9.5 3.8.7 6.7 1.8 6.7 2.5 0 .6-1.4 4.2-3.1 7.9-2.9 6.1-3.1 7.3-2.7 14.3.6 8.9 4.4 19.4 10.7 29.5 2.3 3.5 4.1 6.9 4.1 7.5 0 .7-1.6 4.1-3.5 7.8-3.5 6.6-3.5 6.6-3.5 20 0 15.1.7 17.9 6.4 24.2 5.6 6.1 7.2 11.2 9.6 29.2 2.1 15.6 2.2 18.7 1.5 58.9-.7 44.5-.6 46.1 3.5 36.7 6.7-15.1 7.7-49.8 2.4-80.1-1.5-8.9-2-39-.9-55.5.6-9.3.5-11.2-1.4-16.5-1.2-3.2-2.1-8.3-2.1-11.1 0-4.6.5-5.8 4.2-10.6 2.3-2.9 8.7-10.1 14.3-15.9 8-8.4 11.2-12.8 15.8-21.3 3.2-5.9 6-12.1 6.4-13.7 1.3-6.6 1.8-2.8 1.9 13.9 0 17.6 0 17.8 4.3 33.2 2.3 8.5 6 20.4 8.1 26.5 2.2 6 4.4 13 4.9 15.5 4.8 22.8 7.7 96.7 5.1 126.8-1.4 15.1-3.8 25.8-10.2 44.9-7.7 23.1-7.7 23.7 6.5 45.7 7.3 11.5 13.9 24.6 17.7 35.6 2 5.9 2.2 7.7 1.6 18.9-.4 6.8-1.5 16.5-2.6 21.5-1.1 4.9-2 10.7-2 12.8v3.8h10v15.2c0 8.4.5 22.7 1 31.8.5 9.1 1.4 25.7 2 37 1.3 25 2.6 36.9 4.7 43.7.9 2.9 1.8 5.1 2 4.9.2-.2.5-10.8.8-23.7.2-12.9 1.1-30.2 2-38.4 1.8-18.3 6.6-54.8 7.2-55.5.3-.3 1.1.3 1.8 1.4 1.7 2.3 3.1 1.4 5.1-3.2 2.5-6 2.9-15.7.9-24.6-2.8-12.5-1.8-22 3.5-33.7 7.9-17.5 7.4-14.6 7.5-44.9 0-32-.3-33.9-8.1-48.6-5.7-10.7-7.3-16.8-5.5-20.2.6-1.1 4.8-4.2 9.2-6.9 10.2-6 20.1-15 22.8-20.6 2.5-5.1 2.6-10.5.7-21.3-.8-4.6-1.7-18.4-2-32.6-.7-28.3-1.1-30.2-9.4-43.9l-4.9-8.1 1.7-6.2c3.8-13.6 3.4-24.8-1.5-41.6-1.9-6.7-3.3-17.3-6.4-49.2l-4-40.7 3.1-8.3c2.8-7.3 3.2-9.8 3.6-21.3.4-12.9-.2-19.3-3.3-32.5-1.3-5.6-1.4-10.6-.5-37 .7-20.5 1.6-32.9 2.7-37.9 2.8-13.1.8-30.8-5.8-50.9-1.7-5.1-2.8-10.3-2.5-11.5.3-1.2 5.4-10.3 11.4-20.2 10-16.6 10.7-18.3 10-21.5-.4-1.9-1.6-9.4-2.8-16.7-1.8-12-2-17.7-2-64.5 0-28.2.5-55.6 1-60.8.6-5.2 1.5-19.2 2-31 .8-19.9 1.2-22.5 4.5-35 6.9-26.1 7.7-30.8 7.2-40.5-.4-7-1.4-11.7-4.5-21-2.2-6.6-4.5-16.1-5.2-21-.6-5-2.5-16.4-4.1-25.5-3.8-20.6-4.6-37.9-2.9-55.2 1.6-15.6 1.4-16.8-7.1-35.3-3.2-7.2-6.7-16.3-7.6-20.1-1.7-6.6-2.2-7.5-7.6-12.2-3.2-2.8-9.6-9.7-14.1-15.4-10-12.4-11.4-13.7-19-18-6.7-3.7-14.9-13.1-16.6-18.9-.5-2-2.8-6.3-5-9.5-2.2-3.3-4-6.6-4-7.5 0-.9-.9-2.4-2-3.4-3.5-3.2-6.3-8.6-7.1-13.8-.5-2.7-1.6-5.9-2.6-7-3.5-3.8-21.9-15-35.8-21.7-7.7-3.7-15.2-7.9-16.6-9.4-1.5-1.4-3.2-4.8-3.8-7.4-3.1-12.5-2.4-12.2-25-12.2-15.2 0-17.7-.2-19.4-1.7-1.5-1.5-4-1.8-13.1-2-6.1-.1-12 .1-13.1.3zm5 119.3c1.6.9 4.9 4.3 7.3 7.4 4.5 6 9.9 9.4 21.4 13.7 6 2.2 6.9 3.3 9.2 11.3 2.2 7.4 5.4 10.9 14.5 15.5 4.1 2 7.8 4.4 8.2 5.2 3.9 8.3 4.4 10.8 4.5 22.5 0 6.6.4 13.4.8 15 .5 2.2 0 5.2-1.8 10.7-3.5 10.3-3.4 15.8.4 22.9 4 7.7 4.6 12.3 2.5 19.5-1.2 3.9-1.7 8.3-1.5 12.9.3 7.2.2 32.3-.2 52-.2 9.7 0 11.5 2 15.2 2.9 5.5 2.8 6.7-1 16-3.2 7.5-3.3 8.2-2.9 19.3.5 17.4.4 37.2-.4 60.6l-.7 21 2.6 5.2c2.3 4.6 2.6 6.3 2.6 16.2 0 7.7.8 14.9 2.5 24 2.8 13.9 2.8 13.7-1.4 25.2-1.8 4.8-2.1 8.1-2.1 20.1 0 9.5-.5 16.2-1.5 20-.8 3.2-1.5 8.8-1.5 12.5 0 6 .3 7.2 3.6 11.9l3.6 5.2-.4 9.8c-.3 8.8-.7 10.6-4.1 17.9-3.5 7.8-3.7 8.7-3.7 18.6 0 10.9-1.8 19.5-4.5 21.8-.8.6-4.9 1.5-9.2 1.9-5.8.6-10 1.7-16.3 4.6-6.8 3-10.1 3.9-16.1 4.3-8.3.5-8.7.2-13.1-7.7-1.7-3.1-1.8-3.1-9.5-3.1-12.5 0-14.6-.9-18.2-8.3-1.7-3.4-3.3-7.9-3.6-9.9-.5-3.4-1.1-4-6.8-6.7-7.1-3.4-9.8-5.6-15.2-12.5-2.1-2.6-6.6-7-10.1-9.8-4.8-3.7-7-6.3-9-10.6-1.5-3.1-4-7.6-5.5-9.9-2.2-3.2-2.9-5.3-2.9-9.1 0-3.6-1.3-8.4-4.5-16.5-2.5-6.4-4.5-12.3-4.5-13.2 0-1 1.1-3 2.5-4.7 3.2-3.8 3.2-6.4-.4-11.9-2.8-4.4-2.9-5-3.4-21.5-.8-22.6-2.2-39.9-4-51.4-.9-5.2-2.1-13.5-2.7-18.4-.6-4.9-1.8-10.5-2.5-12.3-1.2-2.9-1.2-3.9.2-7.6 2.3-6.4 3.8-54.2 1.7-59.9-.8-2.2-1.4-7.3-1.4-11.2 0-4-.7-9.7-1.6-12.6-1.3-4.3-1.5-8.5-1.2-19 .4-11.6.8-14.5 3.1-20.4 1.5-3.7 2.7-8.3 2.7-10.1 0-1.8-1.8-7.1-4-11.7-6.6-13.9-9.1-35-7.1-61 1.8-24 3.1-32.9 5.4-36.8 1.5-2.7 2.2-6.2 2.8-15.2 1-15 2.3-17.8 8.6-17.8 4.4 0 8.8-4 12.5-11.4 4.5-9.1 6.2-10.6 12-10.6 2.6 0 9-1.4 14.1-3 5.2-1.7 11-3 12.9-3 5.3 0 9.5-1.7 18.3-7.5 4.4-2.9 8.7-5.5 9.5-5.8 1.9-.7 4.7.1 8.5 2.2z"/><path d="M1509 585.2c-10.9 4.9-11.9 5.2-19.5 5.2-4.4-.1-11.7-.5-16.1-.9-7.3-.7-9-.5-16 1.8-11.6 3.8-14.1 4-25.5 2.2-11.8-1.9-17.3-1.4-26.8 2.1-10.4 3.9-13.9 3.3-22-3.8-9-7.9-13.7-7.5-31.6 2.5l-11 6.2-13 .5c-14.3.7-18.3 1.9-30.9 9.9-3.4 2.1-14.7 8.1-25.2 13.4-21.5 10.9-26.3 12.2-38.5 10.6-9.9-1.3-12.8-.7-30.4 6.2-14.2 5.5-19 8.2-34.3 19l-6.4 4.4-9.1-.1c-5.1 0-11.7-.4-14.8-.8-5.3-.8-5.7-.7-9.2 2.3-1.9 1.8-4.9 5.5-6.5 8.4-3.3 5.9-5.2 7.1-13.7 8.6-8.9 1.7-11.6 3.7-23.8 18.6-2.5 2.9-2.8 3-13.9 3.6-13.6.7-18.7 2.7-31.7 12.3-11 8.1-12.7 8.9-24.7 11.9-18.7 4.6-34.5 14.6-52.1 33.1-15.4 16.1-32.1 37.3-52.1 66.2-20.4 29.5-33.8 43.3-61.7 64.2-25.2 18.9-39.1 31.8-49 45.7-2.4 3.3-7.1 12.5-10.5 20.5-12.6 29.8-28.8 59.6-45.5 83.8-3.9 5.6-7 11.5-8 15-3.1 10.5-7.9 19.5-14.2 26.2-3.3 3.6-6.6 7.6-7.3 9-.9 1.7-1.3 8-1.5 21-.1 24-.9 26.7-14.6 53.5-14.5 28.5-19.6 44.1-22.8 70-1.5 11.8-2.3 15.5-8.7 37.7-2.9 10.3-6.3 24-7.4 30.5-1.2 6.5-4.4 20.8-7.1 31.7-7.3 29-11.8 64.9-13.9 110.6-.6 12.4-1.7 31.5-2.6 42.5-2.6 31.8-.8 53.1 6.1 73.4 1.8 5.4 2.5 9.6 2.5 15 .1 20.1 4.4 33.9 16.4 52.4 20.8 31.8 26.9 56.5 24.2 97.7-.8 12.9-.8 13.7 1.4 18.3 1.6 3.5 4.3 6.5 9.4 10.5 17.1 13.6 27.8 29.1 33 47.7 1 3.3 3.9 10.5 6.7 16 2.7 5.5 5.8 13.5 6.9 17.8 1.9 7.5 4.2 30.2 5.5 53.7 1.2 21.9 4.3 32.9 12.6 45.1 6.2 9.3 14.6 17.1 40.4 37.8 24.6 19.6 32.8 27 35.1 31.3.7 1.4 2.7 6.2 4.3 10.6 5.3 14.5 12.8 24.1 29.1 37.1 5.2 4.1 11.9 9.8 14.9 12.6 6.3 5.9 16.6 18.9 20.6 26 5.1 9.1 11.8 17.9 22 29 5.6 6 18.2 21.1 28.2 33.5 32.4 40.4 53.7 57.3 81.8 65 15.2 4.1 42 13.3 53.5 18.2 15.4 6.7 19.2 8 42.5 14.4 11 3.1 32.2 10.1 47 15.6 14.9 5.5 33.5 12.2 41.4 14.9 15.6 5.3 18.4 6.8 27.6 15.4 11.5 10.8 25.7 15.4 69.1 22.5 30.9 5.1 43.3 7.8 63.8 13.6 15.4 4.5 16.7 4.7 29.1 4.7 10.8 0 14-.3 19.2-2.1 7.3-2.6 15.3-2.8 26.8-.7 4.4.8 12.4 1.4 17.8 1.5 15.2 0 22.4-1.8 49.7-12.6 8.5-3.4 10.4-3.8 18.5-3.8 7.8 0 10 .5 16.8 3.3 17.1 7.1 30.1 6.3 49.6-2.8 5.8-2.7 12.6-5.5 15.1-6.2 6.4-1.7 20.4-1.5 27.6.5 3.4.9 8.2 1.6 10.6 1.6 8.9 0 11.8-1.3 54.8-25.4 18.6-10.4 22.6-12 35.6-13.9 12.1-1.8 19-5 30.1-14 20.3-16.5 29-21.4 44.1-24.6 11.1-2.4 20.6-6.9 32.6-15.6 11.4-8.1 14.5-11 15.2-14.3 2.1-9.5 3.9-12.8 10.3-19.2 6.7-6.7 11.8-9.9 42.6-27 15-8.3 22.3-14 25.2-19.4.8-1.6 2.4-6 3.4-9.9 2.5-8.9 4.5-12.7 10.9-20.6 5.6-7 9.2-13.5 10.9-19.6 1.2-4.8 4.3-8.1 17.3-19.2 11.4-9.7 18-17.7 28-33.8 28.4-46.1 39.2-70.7 46.7-106.5 3.4-16.1 5.4-20.3 19.1-41.1 21.1-31.8 22.8-41.6 9.1-51.4-7.7-5.5-7.8-7.4-1.6-20 7.2-14.7 8.8-23.1 9-49 .2-20.6.4-22.5 2.8-30 3.5-11 4.1-16.2 2.7-24.3-1.6-8.5-.7-11.7 5.6-20.3 5.5-7.5 9.7-15.5 12-23.4 2-6.7 2.5-23.7 1-41-.7-8.3-.4-12 1.3-21.9 3.5-19.5 2.7-27-4.2-42.1-3.8-8.3-4.1-9.6-4.1-17.5 0-4.7.5-12.5 1-17.3 2.4-21.3-2.8-37.7-17.2-54.8-7.7-9.1-9.7-14.8-9.5-27.9.2-14.9-1.7-41-3.5-47.7-2.4-9.2-6.3-15.2-16.7-25.8-5.5-5.5-10.8-11.6-11.8-13.7-2.8-5.4-2.4-12.3 1.2-23.1 2.3-7 3-11 3-16.9 0-8.8-.5-10.1-13.1-36.7-12.8-26.9-19.9-38.3-32.7-52.4-8.6-9.4-13.1-16.8-15.8-25.9-2.4-8.5-5.1-11.7-16-19-11.6-7.7-22.5-18.1-30-28.8-6.1-8.6-9.5-11.1-18.5-14.1-10-3.2-19.5-8.6-24.4-13.9-3.7-4-4.9-6.4-7.5-14.8-1.8-5.6-4.6-12.2-6.5-14.9-4.1-6-12.4-11.9-19.6-13.9-12.9-3.5-15.3-5.5-19.9-15.6-2.4-5.4-3.7-7.1-7.3-9.2-4.9-2.8-16.4-5.8-31.1-8-6.9-1-11.8-2.4-16-4.5-7.4-3.7-10.5-6.4-17.9-15.8-5.9-7.3-12.3-12.2-19.8-14.8-2.5-.9-10.9-2.5-18.7-3.5-18-2.4-20.5-3.7-26.2-13.2-3.3-5.5-12.4-13.4-19.4-16.7-11.2-5.3-36.1-11.1-56.9-13.1-6.2-.7-12.8-1.9-14.6-2.7-1.8-.9-5.7-4.2-8.5-7.5-4.4-5-7.1-6.9-18.2-12.5-7.1-3.6-15.7-8.4-18.9-10.6l-6-4-10 .7c-5.6.3-17.1 1-25.6 1.6-11 .7-22.6.6-40-.2-57.9-2.8-67.7-1.3-94.1 14.3-13.6 8.1-28.3 14.9-38 17.6-4.9 1.3-10.2 1.7-22.4 1.8h-16l-8 4.3c-4.4 2.4-12.7 7.6-18.3 11.7-15.4 10.9-18.2 12-32.6 12l-11.9.1-7 7.4c-13.5 14.4-25.6 28.1-32.6 36.8-3.8 4.8-8 9.3-9.2 10-1.2.8-6 2-10.6 2.8-11.2 1.8-15.9 4.5-29.8 17.5-9.1 8.5-13.2 11.6-19.3 14.5-10.5 5-18.3 10.7-27.4 20.1-6 6.2-7.8 8.8-8.7 12.3-2.6 10.8-6.7 21.7-9.1 24.1-1.9 1.9-5.3 3.3-13.9 5.4-14.4 3.6-23.7 8.1-29.2 14.3-9.2 10.5-16.9 24.2-21.1 37.7-1.7 5.9-2.1 10.1-2.4 26-.2 10.4-.9 21.1-1.5 23.6-.6 2.6-3.5 9.1-6.5 14.4-11.3 20.1-13.9 30.8-8.9 37.5l2.5 3.4-2 3c-4 6.2-6.1 11.6-5.4 13.8.4 1.2 2.8 4.5 5.4 7.2 13.6 14.5 13.5 19-.6 39.1-3.4 4.9-9 12.6-12.3 17-4.3 5.6-7.3 11.1-10.3 18.5-2.2 5.8-5.9 14-8 18.2-4.9 9.9-4.9 14.3-.2 29.8 7.5 24.8 7.6 25 7.1 33.5-.4 5.6-1.4 10.5-3.6 16.3-4 10.8-4.1 18.3-.5 28.9 1.8 5.1 2.4 8.7 2.1 11-.3 1.9-3.2 9.1-6.4 16-8 17.5-7.9 17.7 3 29.4 14.2 15.2 15.1 18.9 8.2 35.4-1.9 4.7-3.5 9.4-3.5 10.6 0 1.1 1.8 5 4 8.6 2.2 3.7 5.4 10.3 7 14.7 6.8 18.2 11.6 24.9 21.2 30.1 13.8 7.3 16.2 11.2 16.4 27 .1 12.7 1.2 17.4 5.4 23.6 3.9 6 9.2 9.6 24.2 16.7 18.1 8.6 21.8 12.4 26.8 27.7 4.2 13 12.8 28.6 33.3 60.6 2.2 3.5 7.2 5.3 17.5 6.5 9.3 1 11.2 1.7 20.5 6.4 21 10.7 32.5 18.8 44.4 31.3 18.2 19 17.3 18.5 37.3 19.7 15.9.9 19.6 2.4 30.4 12.8 11 10.5 15.6 12.7 26.6 12.6 6.7 0 10-.6 15.4-2.7 7.1-2.8 13.6-3.4 18.1-1.7 1.4.6 5.1 3.5 8.2 6.5 8.5 8.4 11.7 9.1 46.3 10.5 12.9.5 25.1 1.4 27 2 2 .5 6.6 3 10.4 5.5 3.8 2.5 8.7 5 11 5.6 6.5 1.8 20 .6 28.1-2.4 20.7-7.7 18.9-7.3 23.1-5.5 2.6 1.1 8.3 1.9 17.4 2.3 7.4.3 20.9 1.3 30 2.1 21 2 49.8 1.5 58-1.1 12.1-3.7 18.5-9.7 21.5-20.1 1.7-5.9 3.8-7.6 11-8.8 14.3-2.5 37.5-8.1 40.9-9.8 8.8-4.4 13.2-9.6 17.2-20.1 4.7-12.4 11-17.2 24.3-18.7 4.2-.5 9.1-1.2 10.7-1.6 5.1-1.2 16.4-7.6 21.5-12.2 6.9-6.2 8.9-10.5 9.8-21.6.9-10.7 3.3-16.1 9-20 2-1.4 10.1-5.1 18-8.3 10.5-4.1 15.5-6.7 18.3-9.3 3.6-3.5 3.8-4 3.8-9.6-.1-3.2-.5-9.1-1-12.9-1.7-13.1 1.5-19.5 12-24.2 6.5-2.9 10.5-6.4 13.1-11.5 3.6-7 6-19.6 6.6-34.7l.6-14.4 6.3-6.9c3.4-3.7 7.5-9.4 9.1-12.5 2.5-5.2 2.8-6.8 2.8-15.8 0-8.1-.6-11.8-2.9-19.4-2.5-8.2-2.8-10.5-2.3-17.5.3-4.5 1.6-11 2.7-14.6 2.7-8.3 3.6-19 2.1-26-.6-3-3.3-10-5.9-15.5-4-8.7-4.7-11-5-17.7-.3-5.7.1-9.6 1.6-14.5 2.9-10.1 3.3-12.8 2.2-18.5-1.4-7.3-5.8-15.8-13.1-25.6-9.5-12.8-9.3-17 2-35.1 4.6-7.3 5.9-13.4 4.1-19.4-1.4-4.9-8.3-12-23.2-24-11.5-9.3-13.3-12.3-12.4-20.9l.7-5.8-8.8-12.3c-4.8-6.7-12-16.1-16-20.9-10.2-12.1-41-41.7-44.2-42.4-10.5-2.3-15.7-6.4-29.1-22.3-7.9-9.4-9.1-10.4-16.9-14.2-11.6-5.5-16-8.8-27.3-19.6-13.3-12.9-15-13.5-33.7-13.1-12.7.2-15.1.1-17.4-1.5-1.5-1-2.7-2.1-2.7-2.6 0-.4-2.1-2.9-4.6-5.4-7.8-7.9-15-9.1-31.7-5.1-8.8 2.2-10.1 1.5-16.7-7.9-9-13.2-15.1-15.7-37.5-15.7-7.7.1-17.6.7-22 1.5-10.9 2-11.6 1.9-20.2-1.5-8.3-3.3-15.3-3.9-20.7-1.6-1.8.7-6.1 3.4-9.5 6-10.2 7.5-19.5 9.1-34.9 6.2-11.8-2.2-20 .1-35.4 10-14.8 9.5-20.1 10.6-28.4 6-5.9-3.3-11.5-3.4-17-.2-11.4 6.5-29.2 22.3-32.6 29.1-1.5 2.8-2.3 6.7-2.7 13.6-.9 14.2-2.9 16.7-22.4 27.3-12 6.6-24.7 20.8-24.7 27.6 0 .9-2.5 5.9-5.7 11-5.4 9-5.7 9.7-6.4 18.5-.4 5.2-1.7 11.4-2.9 14.5-2.3 5.8-10 19.4-15.6 27.2-8.4 11.8-9.4 18.1-4.4 27.5 4 7.4 3.8 11-1 21.3-4.4 9.4-4.8 13.3-2.5 22 1.9 7 1.9 13.2 0 24.5-.8 4.9-1.5 10.8-1.5 12.9 0 7.4 2.9 15.1 8.2 21.7 8.5 10.4 9.2 14.1 5.8 28.9-2.3 10.4-1.5 15.4 3.6 22 3.2 4.1 3.5 4.9 3 9-2.2 15.8-2.1 16.7 1.3 19.9 1.7 1.6 7 4.5 11.8 6.5 4.9 2 9.5 4 10.2 4.4 3.1 1.8 5.2 6 6.1 12 1.1 8 4.1 14.1 9 18.6 5.8 5.2 10.1 7.1 25 10.7 18.3 4.4 18 4 18 21.1.1 22.3 1.9 29.4 8.3 32.6 2.1 1 4.1 1 11.3-.3 11-1.9 19.6-1.9 35.9.1 15.4 1.8 19.8 1.4 37.2-3.2 7.3-2 14-3.4 15-3.2.9.2 3.4 3.2 5.4 6.8 3.1 5.6 4.4 6.9 9.4 9.5 5.4 2.8 6.3 2.9 18.3 2.9s13.1-.2 20.4-3.2c8.7-3.6 16.7-4.2 23.8-1.7 5.8 2 11.3 1.9 15.8-.4 3.9-2.1 25.7-21.3 27.6-24.4 1.5-2.4-.3-4.9-4.2-5.9-6.7-1.8-6.1-2.2 44.1-31.6 10.3-6.1 14.2-9.4 17.4-15 2.4-4.1 2.8-5.7 2.9-14.2.1-8.2.5-10.3 2.9-14.9 1.5-3 2.9-7 3.1-9 1-8.5 4.1-11.6 14.9-14.6 13.1-3.7 18.3-9.4 19.2-21 .9-10.2-2.1-15.6-11.6-20.7-5.7-3.1-3.7-8.8 8.9-24.5 3.2-4 6.1-8.2 6.5-9.3 1.1-3.5-1.3-7.4-6.8-10.9-9.5-6.2-18.9-14.4-27.6-24.4-4.7-5.4-11.4-12.9-14.8-16.8-3.4-3.9-7.7-10.1-9.5-13.7-5.1-10.1-6.4-10.7-21.4-10.4-16.3.4-19.2-.5-27-8.4-7.9-8-11.9-9-30.9-7.9-24.6 1.4-22.8 1.6-24.3-3-.7-2.2-1.8-4.3-2.5-4.7-2.1-1.3-12.6-.9-19.1.8-6.8 1.8-27.2 10.9-26.9 12.1.1.4 5.7 2.4 12.5 4.3 13.6 4 23 8 26.7 11.3 3.1 2.9 6.1 9.4 6.1 13.4 0 2 .6 3.6 1.8 4.1.9.5 10.6 3.1 21.5 5.6 22.5 5.3 24.5 6 25.3 8.1.3.8-.7 4.4-2.4 7.9-5.8 12.4-5.3 15.9 3.1 20.1 3 1.4 9.4 3.7 14.2 5 11.4 3.2 12.9 4.5 12.1 10.9-.5 4.7-.4 5.1 4 10 10.8 12.4 11.3 22.3 1.3 33l-4.2 4.6-.1 13.3c-.1 11-.4 13.9-2.1 17.2-2.6 5.2-8.5 10.7-16.5 15.3-8 4.7-10 7.7-8.1 12.4 4.8 11.7 4.2 17.3-2 19.5-4.3 1.5-22.2 1.6-59.9.2-32.8-1.1-33.5-1.3-43.5-8.8-9.3-7-11.3-7.5-16.5-3.6-1.9 1.4-4.7 2.5-6.5 2.5-6.3 0-23.8-7-31-12.5-5.8-4.3-11.6-6.6-19.8-7.7-4.5-.6-9.4-1.7-10.9-2.5-1.5-.7-4.6-4.1-6.9-7.5-8.5-12.5-15.3-18.2-25.2-21.4-7.2-2.2-9.5-4.5-14.5-14.2-8.5-16.4-10.7-29-12.3-69.2-1.6-39.1-.3-45.3 14.6-71 15.2-26.3 27-42.5 41.2-56.6 28-27.9 89.2-55.7 139.5-63.5 11.5-1.7 31.7-.7 46.8 2.5 17.8 3.8 31.8 5.6 44.8 5.6 6.2 0 13.3.5 15.6 1.1 5.8 1.4 10.1 6 12.7 13.4 2.9 8.3 4.3 10.8 8.2 14.1 4.1 3.7 7 4.8 17.6 6.9 10.2 2 16 4.6 21.2 9.6 4.7 4.5 3.9 4.3 15.1 4.3 11.4.1 12.4 1 13.6 12.1.5 4.5 1.6 9.4 2.5 11 1.9 3.7 8.4 9.9 15.7 15 16.5 11.6 39.1 30 39.7 32.3.4 1.8-1.1 5.8-5.5 15.1-7.5 15.7-8.2 17.8-8.2 26 0 8.7 1.2 12.6 7.6 25.3 6.9 13.6 8.8 21.4 8.1 33.3-.6 11.4-4.7 23.1-12.4 35.2-17.7 27.9-19.1 31.2-17.2 40.7 1.1 5.7 1 6.6-1 11-3.6 8.1-10.8 17.2-26.5 33.5-17.7 18.3-20.9 23.6-25.5 41.3-3.2 12.7-6.3 19.6-12.3 27.6-5.2 6.9-15.4 15.2-23.6 19.2-18.8 9-29.2 15.7-34.1 21.9-5.7 7.2-7.3 12.3-8 25.8-1 17.9-2.4 19.3-24.9 24.9-7.5 2-22.7 6.1-33.8 9.4-24.5 7.1-36.5 9.5-55.9 11.4-16.2 1.5-23.5 3.5-31.4 8.5-5.5 3.6-14.5 6.1-21.7 6.1-8.4 0-27.7-3.7-36.1-7-10.4-4-22-11.3-31.8-20-11.7-10.5-20.7-16.6-32.5-22.2-22.3-10.5-21.2-9.7-24.6-16.6-5.9-11.9-8.2-13-29.4-14.1-17.9-1-22.5-3.1-25.6-11.8-.7-2.1-1.3-5.5-1.4-7.6 0-3.4-1-4.8-9.3-13.6-8.9-9.4-13.3-15.3-26.2-35.6-3.2-5-11.3-15.8-18-24.1-22.7-27.8-33.7-47.3-39.6-70.1-2-7.5-2.3-11.4-2.4-25.8 0-18.9.4-20.6 7.7-36.5 5.2-11.2 6.9-19.4 6.1-29.5-.7-10.5.8-21.8 5.9-41.7 3.8-14.6 4.2-17.5 4.2-28.3 0-10.4-.4-13.6-3.2-23.9-3.5-12.8-4-20.4-2-30.1 1.1-5.4 9.9-24.3 22.7-48.4 7.2-13.4 8.6-20.6 7.7-39.6l-.7-15.1 3.1-6.1c6.3-12.6 24.2-25.8 38.5-28.4 17.7-3.3 25.9-7.8 32.4-17.8 3.9-6 6-12.4 10.6-32.1 3.9-16.5 9.1-31.6 12.6-37.2 6-9.4 15.3-14 31.8-15.8 19.7-2.2 28.3-7.1 37.5-21.4 11-17.1 17-19.9 54.1-26.1 14.3-2.4 26.7-4.6 27.6-5 .9-.3 4.4-3.8 7.9-7.7 8.7-9.7 14.1-12.2 25.4-11.6 7.7.4 8.8.8 18.9 6.2 18.5 9.9 26.5 10.5 57.4 4.1 21-4.3 34.1-5.9 44.7-5.3 10.2.5 14 2.6 19.3 10.6 5.9 8.9 8 9.3 29.8 5.8 24-3.9 27-3.6 44 4.8 15.1 7.5 20.6 9.4 41.1 14 24.3 5.5 34.8 10.5 36.9 17.3.8 2.9.6 2.8-8-.2-3.8-1.3-7.9-2.5-9.1-2.5-3.2 0-5.4 3.1-5.4 7.6 0 7 6.1 11.2 19.5 13.5 14.4 2.4 21.4 8.6 29.7 25.8 6 12.7 7.3 14.5 14.5 19.6 8.7 6.3 9.2 7.3 9.6 20.1.5 15.9 1.8 17.7 17.4 23.7 13.7 5.3 26.5 14.2 45.1 31.3 9.1 8.5 9.2 8.6 9.2 13.3 0 3.4.7 5.7 2.3 7.9 26 35.8 28.8 40.5 32.1 55.2.3 1.4 2.2 4.3 4.2 6.5 5.4 6 10.2 13.7 16.2 26.5 3 6.3 7.7 15 10.4 19.3l5 7.7.8 13.3c.5 7.2 1.5 16.3 2.4 20.2.8 3.8 2.6 15.1 4.1 25 3.6 25.1 6.1 38.2 9.7 51.3 3.6 13.5 3.5 15.2-2.2 29.2-3.5 8.5-4.4 12-4.8 18.7-.6 10.5-.1 12.2 5.3 18.3 4 4.5 4.5 5.6 4.5 9.9 0 2.8-1.3 8.4-3.1 13.7-4.3 12-5 23.2-2 29.1 1.1 2.3 3.5 5.2 5.3 6.4 1.8 1.3 3.9 3 4.6 3.9 1.8 2.2.9 8.5-2.2 15.8-3.9 9.2-5.6 19.5-5.6 35-.1 29.7-2.2 41.4-9.7 52.5-4.6 6.9-6.8 11.3-8.3 16.5-1 3.8-.9 4.9 1.1 8.8 1.7 3.7 4 5.7 12.3 11.3 5.5 3.8 10.9 7.8 12 8.9 4.6 5.2.7 10.9-14.9 21.5-10.4 7.1-27.4 23.8-33.4 32.8-6 8.9-7.6 15.3-6.5 25.9 2.4 24.4-.6 32.6-19.4 51.7-6.4 6.5-10.8 12.1-13.1 16.3-8 15.2-20.6 29-31.6 34.5l-6 3-25 .5c-24.6.6-25.1.6-32 3.4-11.7 4.8-20.2 11-33 24.1-7.2 7.3-15.2 14.4-20 17.5-4.4 3-17.1 12.2-28.2 20.6-32.3 24.3-39.2 27.8-55.8 27.8-9.6.1-10.3-.1-15.9-3.3-4.9-2.9-6.8-3.4-11.7-3.4-5.4.1-7.8 1-26.7 10.1-62.8 30.3-76.5 34.4-115.7 34.6l-21 .1-6.8-3.3c-7.3-3.6-11.8-8.7-18-20.2-3.5-6.4-7.7-8.5-15.2-7.5-9.5 1.2-24 4.5-39 9-19.3 5.7-26.7 6.9-37.9 6.2-11.5-.7-19.9-3.4-30.5-9.6-11.9-7.1-15.6-7.7-37.8-6.1-25.7 1.7-41.5.1-49.7-5.1-3.9-2.4-5.2-4.2-9.9-14.1-6.6-13.8-12.1-20.2-21.4-25.1-8.3-4.3-15.4-5.7-29.4-5.7-20.8 0-29.7-3.7-43.6-17.8-6.1-6.2-10.3-11.6-12.7-16.2-4.9-9.3-9.9-13.4-20.3-16.6-18.5-5.6-32.5-15.4-41.7-29.2-10.4-15.6-18.4-24-34.4-35.9-6.2-4.7-11.9-9.5-12.8-10.8-.8-1.2-1.9-4.8-2.4-8-2.7-16.8-7.2-25.6-19.8-38.9-5.3-5.7-12.2-14.3-15.2-19.1-3-4.8-8.4-11.5-11.9-14.9-3.6-3.3-8.3-7.9-10.6-10.1l-4.2-4-.6-13c-.7-17.7-3.6-25.8-13.1-36.3-4-4.4-13.6-19.4-17.4-27.2-2.4-4.9-2.7-6.6-2.6-15.5 0-6.9.8-13.9 2.7-22.5 3.5-16.5 4.2-24.4 2.7-30-1.7-6.7-12.6-16.9-34.9-32.6-3.9-2.8-5.4-7.9-5.4-18.4.1-11 1.9-19.4 6.3-30 6.4-15.1 5-29.5-4-40.8-7.4-9.5-7.5-9.8-7.5-28.7.1-14.1.5-18.4 2.3-25.2 3-11.5 7.5-22.6 12.8-31 7.4-12 9.8-18 9.8-24.8 0-3.7-.6-7.2-1.7-9.2-1.8-3.4-9.6-13-18.5-22.8-6.4-7-8.6-11.4-7.6-15.9.3-1.7 3.2-7.5 6.5-12.8 9.4-15.7 10.8-22.7 6.9-34.8-1.1-3.5-1.8-7.3-1.5-8.4.3-1.2 4.8-10.7 10.1-21.1 8.7-17.4 9.7-20 11.9-31 1.3-6.6 3.3-14.9 4.3-18.5 2.4-8 12.8-40.8 14.9-47 1.2-3.4 4.1-7 11.8-14.5 5.7-5.6 12.7-13.8 16-18.7l5.8-8.7.8-10.6c.9-11.4 1.3-12.6 15.8-48.5 7.3-18 9.6-21.4 14.9-22.6 6.9-1.5 14.6-5 18.6-8.6 6-5.2 10.8-15 13-26.3 4.1-20.8 4.8-23.4 7.6-27.9 1.6-2.5 5-5.9 7.6-7.5 5.3-3.4 24.6-10.5 32.7-12 8.3-1.5 15.3-5.5 23.6-13.5 7.8-7.5 18.9-21 25.9-31.2 7.6-11.3 12.4-14.5 29-19.3 13.1-3.9 18.6-11 20.4-26.4.6-5.1 1.5-9.7 2-10.4.6-.7 3.2-1.2 6.3-1.1 4.4.1 6-.3 8.9-2.6 2-1.5 3.6-3.1 3.6-3.6 0-2 9.3-12 14.2-15.2 7.7-5.1 14.4-6.9 28.3-7.8 14.4-.8 16.7-1.8 23.3-10 5.1-6.3 8.8-8.6 12.6-7.6 1.5.4 5.8 3.6 9.7 7.1 3.9 3.6 7.7 6.5 8.4 6.5.8 0 6.7-4 13.3-8.9 15.7-11.8 29.4-20.7 41.7-27 11.8-6.2 18.2-7.4 29.5-5.7 4.3.6 18.8 1 34 1 22.3-.1 30-.6 48.5-2.9 18.8-2.4 27.6-2.9 60-3.5 36.3-.7 38.4-.8 47.5-3.3 17-4.5 21.4-4.4 32.5.8 6 2.9 10.1 3.2 27.2 2 15-1 18.9-.1 27.9 6.6 10.4 7.6 15.3 9.1 32.5 9.5 17.2.3 23.9 2.2 37.2 10.3 11.8 7.3 15.3 8.3 30.7 9.1 21.7 1.3 29.7 5.7 41.2 23 9.6 14.3 10.9 15.1 27.5 16 10.9.6 12.9 1 18.5 3.8 6.9 3.4 12 8.1 17.7 16.3 5.9 8.4 7.6 9.3 19.9 10 12.3.6 15.3 1.8 24.7 9.9 7.8 6.7 17.4 11.2 30.9 14.5 12.1 2.9 27.7 10.2 30.3 14.1.8 1.3 2.4 5.8 3.5 10.1 4.1 16.3 11 24.7 25.3 30.9 11.4 4.9 13.9 7.9 17 19.8 4 15.3 14.9 28.4 30.5 36.6 17.7 9.3 27 23.3 27 40.6 0 2.4.7 6.1 1.5 8.1 2.1 5.1 11.1 16.8 20.8 27.2 10.3 11.1 14 16.8 17.1 26.5 3.1 9.5 7 14.9 17.4 24.4 11.4 10.3 12.8 13.6 13.6 31.9.3 8.7 1.1 15.6 2 17.6 1.6 3.9 6 7.7 8.8 7.7 1.1 0 2.8.4 3.8 1 3.3 1.7 12.6 18.9 15.5 28.4 1.5 4.9 6 17.5 10.2 28 14.2 36.1 14.9 39.6 11.8 55.9-2.3 12.3-.8 15.7 9.9 21.9 15.2 9 17.5 12 24.1 31.8 4.9 14.7 9.5 23.5 15 28.8 2.4 2.3 3.5 4.2 3.5 6.1 0 4.8 2.9 20.3 5.2 27.1 2.6 8.1 6.2 15.4 9.9 20.2 5 6.2 5.6 9.1 6.3 28.3 1.1 29.6 2.7 33.9 16.2 44.1 6.1 4.6 8.5 7.1 10.7 11.4 2.8 5.5 2.8 5.6 3 27 .2 20.6.3 21.7 2.5 25.2 1.3 2.1 3.7 4.7 5.3 5.9 3.6 2.5 3.6 4.4.3 14-3.7 10.5-3.7 22.7-.1 36.6 5.1 19.4 4.5 31.4-2.4 45.8l-3.4 7-.3 41c-.3 35-.1 41.3 1.2 43 1.3 1.8 1.6 1.8 2.9.5 2.1-2.1 23.1-47.4 27.4-59.1 2.8-7.7 5-11.6 10.3-18.2 9.4-12 13.5-18.4 19-30 5.6-11.8 8-20.1 8.7-30.7.3-4.1 1.6-10.6 2.9-14.4 1.4-3.7 4.4-14.8 6.8-24.6 3.3-13.3 5.7-20.6 9.6-29.1 2.9-6.3 6.6-16.4 8.2-22.8 2.7-10.2 3.1-13.6 3.4-28.9.3-15 .7-18.5 2.9-25.6 2.4-7.9 4.3-21.3 5.1-35.9l.3-6.7-4.6-5.2c-10.1-11.3-10.9-20.3-4.4-46.6 5.7-22.9 6.6-31 5.1-43.2-1.3-9.6-1.2-10 1.4-18.5 2.3-7.2 2.7-10.2 2.5-18.8-.1-9.8-.3-10.7-6.5-27.2-11.3-30-12.7-38.3-11.5-68.5.3-8.4.3-8.5-4.4-17.5l-4.8-9-.7-16.5c-.9-19.3-2.8-26.4-10.2-37.7-6.5-9.8-6.7-10.3-11.9-27.3-2.6-8.5-6.1-19.2-7.8-23.8-4-10.8-5.6-17.9-7.5-33.7-1.9-15.7-5.5-27.5-10.8-35.8-2.2-3.4-8.4-10.7-13.8-16.2-10.6-10.8-14.2-16.8-18.5-30.3-3.1-9.6-6.4-14.6-20.7-31.4-25.8-30-28.1-33.4-32.9-48.3-5.7-18-12.7-29.4-24.5-40.3-3.8-3.5-9-8.3-11.6-10.8-2.6-2.4-6.8-8.2-9.5-13-6.3-11.3-11.3-16.2-22-21.6-8.4-4.1-9-4.7-14.7-12.8-8.3-11.9-24.9-28-37.6-36.7-13.9-9.4-19.7-14.7-27-24.8-7.3-10.1-13.6-15.8-23.8-21.5-12.8-7.2-15.4-9.2-19.8-16l-4.2-6.5-20.8-11.6c-11.5-6.4-25-13.3-30-15.4-12.4-5-15.9-7.5-29.9-21.3-13.1-12.9-13.3-13.1-30-16.7-10.6-2.3-26.3-9.9-35-17-12.2-9.9-20-12.9-38.3-14.4-13.5-1.1-15.5-2.2-18.8-9.9-4.7-11.2-4-10.6-12.9-11.4-6.2-.5-10.1-1.5-17.2-4.7-10.7-4.7-29.2-10.6-38.1-12.1-9-1.6-11.2-2.6-15.2-6.9-4.4-4.8-8.5-5.5-26.9-4.6-12.1.6-14.3.4-20.1-1.4-3.6-1.1-9.2-3.7-12.5-5.7-10.2-6.2-12.1-6.6-35-7.4-11.5-.5-29.3-1.4-39.5-2-16.8-1.1-19.1-1.5-25.2-4.1l-6.6-2.9-24.4-.2c-24.3-.3-24.3-.3-29.9-3.1-3.1-1.5-6.7-2.7-8-2.7-1.3 0-7.6 2.4-13.9 5.2zM536.7 1773c.2 16.2.8 34.8 1.3 41.2.6 6.4 1 17.6 1 25 0 7.3.5 15.1 1 17.3 2.1 8.5 2.4 29.4.5 42.9-2.3 17.5-1.1 26.7 5.3 39.2 3.8 7.5 3.7 9.6-1.3 29.5l-4.7 18.4-.9 26c-1.1 29.9-.8 33.8 3.2 45.8 3.6 11 3.9 19.3.7 26.9-1.7 4.3-2.2 8-2.6 18.8-.7 22.4.7 31.9 8.2 54.2 3.6 10.6 8.3 25.2 10.4 32.3l4 13-1.9 9.3c-2.1 10.2-2.4 8.6 2.8 18.5.9 1.6 1.9 8.4 2.6 16.9 1.6 21.3 0 38.6-5.8 61.4-5.5 21.9-6.1 28.5-4.6 51.7.6 10 1.5 34.2 2 53.7.7 31.5 1 35.9 2.6 39.3 2.8 5.6 3.5 3.1 4.2-15.5.7-19.1.1-24.3-3.4-29.4-3.6-5.5-2.8-9.8 5-26.2 3.6-7.5 7.1-15.5 7.6-17.7.6-2.2 1.3-14.8 1.7-28 .5-20 .9-25.2 2.7-31.5 2-7.2 2.1-9.4 1.8-50-.2-30.8-.6-45.4-1.7-53-.8-5.8-1.9-20.4-2.4-32.5-.8-19.7-1.2-23.3-3.9-33.9-1.7-6.5-3.3-12.2-3.6-12.6-.3-.5.8-4.9 2.5-9.8 4-11.9 4-19.8.3-30.3l-2.7-7.6 3.7-14.9c2-8.2 3.8-16 3.9-17.4.2-1.4.7 4 1 12 .7 15.2 2.7 26.4 6.1 34 1.8 3.9 2.1 7.4 2.7 27.5.4 12.6.2 37.7-.3 55.7-.7 27.8-.6 34.8.7 45.7.9 7.2 1.6 18.1 1.6 24.3 0 12.1.6 16.1 2.3 15.5 1.7-.5 2.6-5.1 4.2-22 .9-8.7 2.2-20.2 3-25.5 1.7-11.3 1.9-24.1.4-36.7-.5-5-1.4-16.9-2-26.5-.5-9.6-1.2-19.9-1.5-22.9-.9-7.7 1.9-15.8 9-26.6 7.9-12 10.4-17.8 11.4-26.1l.7-6.9 2.9 5c1.5 2.7 5.8 7.8 9.5 11.3 5.1 4.8 6.3 6.4 5.2 7.1-1.8 1.2-1 11.5 1.3 15.9 1.2 2.4 1.6 6.2 1.6 16.9.1 20.5 1.4 31 6.6 50.9l4.6 17.9-.1 29c-.1 15.9-.6 31.7-1.2 35-1.6 10.2-2.9 28.9-3.9 56.1-1.1 30.8-2.3 43.6-5.5 60-1.3 6.6-3.1 19-4 27.5-.9 8.5-2.2 21.5-3 28.9-1 9.2-1.1 14.6-.5 17 .5 1.9 1.9 6.8 3 10.9 1.2 4.5 2.3 13.2 2.9 22.5.7 10.9 1.5 16.9 3.1 21.6 1.9 5.5 2.3 9.5 2.7 26.6.3 11.5.1 25.7-.6 33-1.1 13.1-.6 21.8 2 33.4 1.1 5.1 1 6.3-1.5 15-4.1 13.9-4.3 19.1-1.3 27 3.4 8.9 4.1 18.1 2.7 36.1-1.8 24.7-2.5 28.5-7.6 40.5-7.7 18-7.1 29.4 2.7 45.9 5.3 9 10.1 18.6 9.6 19.1-.2.2-2.1 1-4.3 1.8l-3.9 1.3.1 15.4c.1 11.1.7 19.1 2.3 28.4 2.2 12.2 2.3 16.1 2.4 63.5.2 34.4.7 55.5 1.6 66.1 1.2 13.2 1.2 17.1.1 24.5-.7 4.9-1.5 15.3-1.7 23.1-.5 16.5-1.4 15.5 10.8 12.7 5.8-1.3 7.2-1.4 8.6-.3 1.2 1.1 6.6 1.3 24.3 1 22.4-.3 22.7-.3 23.3 1.8.6 2.5 4.8 2.9 7.1.6 1.9-1.9 2.8-1.9 10.4.5 11.9 3.7 25.8 2.4 30.6-2.9 1.6-1.7 1.4-2.3-2.3-9.2-6-11.2-6.7-15.2-4.6-26.3 1.3-6.9 1.6-12.8 1.3-23.2l-.4-13.9-6.9-13.5-6.8-13.5-.8-37.5c-.7-40.6-.9-42.6-4.5-54.4-2.8-9-4.6-24.7-3.5-29.8.4-1.8 1.8-5.9 2.9-9.1 1.4-3.7 2.6-10.1 3.2-18 .6-6.7 1.3-13.4 1.6-14.8.3-1.4 0-4.6-.6-7-.9-3.7-.6-6.8 1.5-18.4 7.1-38.9 7-44.1-.9-60.9-6.9-14.7-8.1-26.6-4-41.8 2-7.8 1.8-18.4-.6-23.6-1.5-3.3-2.1-7.3-2.5-16.1-.2-6.5-.9-13.9-1.5-16.5-.8-3.8-.6-6.6 1-14.7 1.9-9.3 2-12.3 1.4-39.7-.3-16.3-1-31.5-1.6-33.7-.5-2.2-2.7-7.6-4.8-12l-3.8-8 1.4-7.5c.8-4.1 1.7-14.9 2-24 .5-13.5 1-17.9 2.9-24 5-15.6 5.6-19.5 6.5-39 .5-10.7 1.4-24.4 2.1-30.3 1.5-13.9.8-25.4-2.2-33.7-2.1-5.9-2.4-8.6-2.7-29-.3-14 .1-28.4.9-38 .8-8.5 1.4-22.8 1.3-31.7v-16.2l5 4c2.8 2.2 10.9 9.3 17.9 15.7 16.4 14.9 23.6 20.3 37 27.6l10.7 5.8v8.5c0 4.6.4 9.2.9 10.2.5.9 1.3 7.6 1.7 14.9.4 7.3.9 13.1 1.1 12.9.2-.2.8-6.8 1.4-14.5.7-10.4 1.6-15.7 3.3-20.2 1.7-4.7 2.5-5.8 3.3-4.8 1.3 1.5 2.5 20.8 2.1 31.8-.2 4.1-.3 27.1-.3 51v43.5l3.3 21.1 3.2 21v45.5c0 26.8.4 44.8.9 43.9 1.1-1.8 4.5-27.9 6.1-46.5.8-8.3 1-27.9.7-54.5-.4-36.1-.7-43-2.5-53-1.1-6.3-2.5-16.5-3.1-22.5-1.5-15.6-2.5-58.6-1.6-67.8.7-7.8.7-7.8 2.7-6l2.1 1.8-.9-9c-.5-5-.7-16-.6-24.5.3-12.7-.1-18.5-2.2-32.2-2.3-14.8-2.6-19.7-2.6-44 0-19.7-.4-30.1-1.6-37.3-2.9-18.7-2.9-19.3.1-28.8 2.2-7.1 2.6-9.8 2.1-14.5-.4-3.1-.9-10.8-1.3-17l-.6-11.3-7.1-5.4c-3.9-3-8.1-6.7-9.3-8.3-1.3-1.8-6.3-5.1-12.4-8.2-8.2-4.2-12.1-7-19.2-13.9-4.9-4.7-11.5-11.8-14.6-15.6-7.6-9.5-10.1-11.8-20.6-18-4.9-2.9-10.4-6.8-12.1-8.7-5.2-5.5-14-18.9-17.2-26-3.7-8.1-7.6-13.9-14.9-22.1-3-3.4-8-10.5-11.1-15.7-3-5.2-6.9-11.3-8.6-13.5-6.3-8-14.5-20.3-17.6-26.6-7.1-14.1-27.1-35.3-40.1-42.5-3.9-2.1-8-5.1-9.1-6.7-1.1-1.6-5.5-5.5-9.7-8.8-8.1-6.4-15.2-14.8-20.1-24.1-2.3-4.2-3.9-6-5.8-6.5-1.4-.3-8.5-3.3-15.7-6.5-10.4-4.7-13.7-6.7-16.6-10.1l-3.6-4.1.4 29.4zm25.7 393.8c2 19 1.9 20-.6 13.2-1.6-4.2-2.2-8.6-2.5-18.5-.5-17.2 1-14.6 3.1 5.3zM2424 1845.1c-1.9.5-9.1.7-16 .3-10.6-.5-13.1-.3-16.5 1.2-2.2 1-7.5 2.1-11.7 2.4-7.2.6-8.1.9-12.7 4.8-6.1 5.1-14.4 9.2-18.9 9.2-7.4 0-12.1 4.2-24 21.5-7.1 10.4-7.3 10.6-13.3 11.4-9.1 1.2-15.1 5.7-36.9 27.7-12.7 12.7-16.3 17.4-25 32.2-4.6 7.9-12.7 15.9-16.9 16.7-6.9 1.4-7.6 2-10.5 8-1.6 3.3-3.7 6.6-4.7 7.3-1 .7-5.3 5.4-9.5 10.5-4.3 5-11.5 13-15.9 17.7-4.5 4.8-9.4 10.7-10.9 13.2-1.5 2.6-8.3 10.3-15.2 17.3-7.1 7.2-12.4 13.4-12.4 14.5 0 2.3-5 8.2-10.6 12.4-11.3 8.5-16.4 13.1-16.4 14.5-.1 2.4-3.6 6.1-5.9 6.1-1.1 0-3.2 1.6-4.8 3.7-3.1 4.1-10.7 9.3-13.5 9.3-1.3 0-1.8.8-1.8 2.7 0 4.1-9.7 21.2-15.9 27.8-7.9 8.6-10.6 13-13 21.1-2.2 7.4-9.6 19.9-14.5 24.3-3.1 2.9-3.2 4-.6 7.4 3.3 4.2 3.9 17.5 1.1 24.5s-2.7 9.1.8 13.2c5.9 7.3 6.6 9.5 6.6 22.5 0 11.3-.1 12.2-2.7 16.1-6.7 10.4-7.6 19.9-3.2 33.1 2.5 7.3 2.7 9.3 3.1 29.8l.5 22-3.1 5.9c-2.4 4.5-3.1 7.1-3.1 11.5 0 6.1.6 7.4 7.9 16.5 5.3 6.8 6.4 11.1 5.1 20.8-.5 4-1 15.9-1 26.4 0 17.5-.2 19.7-2.6 27.5-2.5 8.4-3.4 16.3-5.4 46.4-1.2 17.4-2.4 28.9-4.5 42.9-2.1 13.8-2.1 18.7.1 26.1 1.1 4.2 1.8 11.2 2.1 23 .5 16.5.4 17.3-2.2 25-2.6 7.6-2.8 9.3-3.5 36-.5 15.4-1.1 29.8-1.5 32-.3 2.2-.2 9.5.3 16.2.9 11 1.3 12.7 4.3 17.9 4.7 8.3 5.1 12.7 2.9 32.2-2.7 23.2-2.6 36.4.2 43.9 2.9 7.5 2.9 16.3-.1 22.1-2.5 4.9-2.7 11.9-.6 18.3 1.8 5.7 3.3 30.5 2.4 40-.4 4.1-.8 17.3-.8 29.5-.1 19.4.2 23.1 2 30 2.6 9.6 2.8 17.3.6 23.9-.9 2.7-2.1 9-2.7 14-.6 4.9-1.6 12.6-2.2 17-.5 4.4-2.1 10.6-3.5 13.9-1.3 3.2-2.3 5.9-2.1 6.1.2.1 3.8.7 8.1 1.4 9.9 1.4 19.8 1.4 26.9 0 4.9-1 5.9-.9 9.6 1 3.2 1.6 6 2.1 12.5 2.1 5.6 0 9.5.5 11.3 1.5 1.6.8 4.1 1.5 5.6 1.5 1.8 0 3.5 1 5.2 3.2 2.2 2.9 2.7 3.1 3.8 1.7.7-.8 4.2-2.1 7.7-2.8 17.1-3.3 26.5-14.9 19.7-24-2.4-3.2-2.5-3.7-1.9-13.7.5-8.8.3-10.7-1.2-13-1.6-2.6-1.7-4.6-1-28.3.5-14.1.9-39.1.9-55.6.1-27.8-.1-30.9-2.3-42l-2.4-12.1 4.1-10.4c5.5-14.2 5.7-16.1 3.6-29.5l-1.8-11.5 3.3-9.8c3.8-11 5.6-25.8 5.5-43.7 0-12-.4-13.2-7-21.4-4.1-5.2-4.1-6.1.6-18.3 3.6-9.4 4-16.8 1-21.3-2.2-3.4-2.5-7.1-.9-14.5l1.1-5h7.3c7.3 0 7.3 0 8 3 .4 1.6.4 3.8.1 4.7-.3 1-1 5.6-1.5 10.3-1.2 9.5-.4 15 2.6 18.3 2.2 2.5 5.1 17.4 6 30.7.5 7.7.1 10.1-3.7 25.4-4.2 16.7-4.2 17.1-3.7 30 .4 8.8 1.3 15.7 2.7 21.1 1.8 6.7 2.1 10.2 1.9 22.5-.2 12.9.4 25 2.6 51.5.5 5.7.1 12.6-1.4 24.4-1.2 9-2 16.6-1.7 16.8.4.4 2.2-8.8 3.2-16.6.3-3 1.8-8.6 3.1-12.5 2.7-7.7 2.7-7.6 1.2-33.6-1-18.6-2.1-48.7-2.3-66-.1-10.9 1.3-24 4.1-37 .9-4.1 1.9-12.2 2.3-18 .5-7.6 1.5-12.4 3.4-17.3 3-7.8 3.3-13.3 1.1-23.9-1.1-5.2-1.5-11.8-1.3-22.3l.3-15 3.5-1.7c9.3-4.5 40.3-11.1 55.1-11.7l12.6-.6 10.9-7.2c6-4 13.9-8.4 17.7-9.8l6.7-2.5v4.3c0 2.3.5 6.9 1 10.2 1.9 10.9 3.2 32.6 3.9 68.5.7 28.7 1.1 36.4 2.4 40.4 2.7 7.9 6.7 30.1 6.7 37.1 0 3.5-.7 11.5-1.6 17.7-1.7 12-1.4 27.3.7 33.8.6 1.9 1.5 8.4 1.9 14.5.5 6 1.2 14.8 1.5 19.5.7 8 .5 9.3-3.4 22.7-2.3 7.9-5.1 16.2-6.1 18.5-3.5 7.7-2.2 14.3 3.6 17.8 6 3.8 8.5 15.8 8.3 40.1-.1 8 .1 15.1.4 15.6.4.6-.1 3.2-.9 5.7-2.5 7.3-1.6 23.6 1.6 29.9l2.4 4.9 5.3-.7 5.2-.6.3 3.8c.3 4.1.3 4.1 6.3 1.9 2.6-1 7.8-1.5 14.5-1.6 8 0 12.8-.6 19.9-2.5l9.5-2.6 8.5 3.2c7.6 2.8 10.3 3.2 23.1 3.9 9.9.4 15.7 1.2 18.4 2.3 4.9 2.2 7.2 2.1 8.1-.1.4-.9.9-20.8 1.1-44.1.4-41.1.5-42.5 2.5-43.9 7-4.9 7.4-8.3 2.4-24.2-1.9-6.1-4.9-19.5-6.7-29.8-2.8-16.5-3.2-21.6-3.6-42.7-.4-23.3-.3-24.3 2.2-34l2.6-10-2-6c-1.4-4.3-2.2-11.5-3.1-25.5-.6-10.7-1.4-22.3-1.6-25.8-.3-4 .1-8.8 1.2-13.2 1.9-7.8 1.7-25.1-.5-45.7-1.3-11.3-1.2-12.7.4-18 1.8-5.6 5.3-13 11.7-24.3 3-5.4 3.1-5.7 2.5-15-.3-5.2-1.4-13.1-2.6-17.4-1.2-4.7-2-11.1-2-15.7 0-5.3-.6-9.4-1.9-12.6-1.7-4.5-1.8-6.8-.9-42.3.5-20.6 1.1-40.9 1.4-45 .3-4.1.3-9.9-.1-13-.8-6.2-1.2-5.8-4.2 4.9l-1.8 6.3-4.3-14.3-4.2-14.4V2438c-.1-28-1.4-46.4-4.6-60.9-2.4-11.2-2.6-13.1-1.5-18.7 1.6-9 1.4-17.5-.5-20.3-1.3-1.8-1.5-3.7-1.1-8.5.5-5.1 1.3-7.3 5.1-12.9 4.9-7.3 6.2-12.6 5.3-21l-.6-5.2 1.9 3.1c3.5 5.5 4.3 13.3 3.4 34.4-.9 21.7-.7 81.4.3 90l.6 5.5 1.8-9c1-5 1.8-13.3 1.9-18.5 0-5.2.5-15.5 1.1-22.8 1.4-15.3.2-42.6-3.2-79.7-1.3-13.8-1.9-27-1.7-35.5l.3-13.5 4.9-10c5.4-11.2 7.5-21.4 7.5-38 .1-5 .6-15.7 1.3-23.8l1.1-14.8-3.1-2.7c-1.7-1.5-5.2-6.7-7.7-11.7-4-7.7-4.6-9.5-4.1-13 .4-2.2 1-14.1 1.5-26.5s1.4-26.8 2.1-32c1-7.6 1-12.2-.1-23.2-1-11.1-1-16 0-25.5 2.8-26.2 2.4-43.6-1.5-65.8-.7-4.4-1.9-14.4-2.5-22.2-1-12.3-.9-15.3.5-21.4 2.2-9.8 2.1-20.2-.4-27.9-1.1-3.4-2.1-8.3-2.1-10.9-.1-2.5-.3-3.7-.6-2.6s-.8 2.4-1.2 2.8c-1.3 1.4-5.2-11-6-19.1-.7-6.8-2.6-12.4-4.1-12.1-.3.1-2.1.5-4 1zm11.9 311c.8 3.9 2.3 6.9 5.1 10.3 3.4 4.1 4 5.5 4 9.5 0 2.5-.5 6.4-1 8.6-1.4 6-3.9 27.2-5 42.5-.5 7.4-1.4 15.7-1.9 18.5-.5 2.7-1.1 9.9-1.2 16-.1 6-.5 14.4-.8 18.5-1.1 12-2.5 4.2-1.6-9.3 1.1-18.4 1-19-2-24.1-2.4-4.2-2.7-5.3-2.1-10.4.4-3.1 1.1-11.6 1.7-18.7.5-7.2 1.2-16.1 1.5-19.8.7-8.6.3-10.3-4.1-15.8-4.7-6-5-8.4-2.2-16 3-8 7.9-17.8 8.2-16.4.2.5.8 3.5 1.4 6.6zm-119 35.9c.7 9.1 1.8 21 2.6 26.5 1.9 14 2.3 53.8.6 55.9-1.2 1.5-1.5 1.3-2.8-1.1-1.3-2.3-1.4-6.3-1-22.6.4-12.9.2-20.8-.5-22.5-3-7.5-5.1-55.5-2.5-58.1 1.7-1.7 2.3 1.8 3.6 21.9zm-26.9-1.8c4.2 2.2 4.5 2.6 5.1 7.2.3 3 1.1 5.2 2.2 5.8 1.2.6 1.7 2.2 1.7 5.1 0 2.6.8 5.5 2.3 7.7 2.1 3.4 2.2 4.5 2.8 36.5.3 21.3 1 34.2 1.7 36.5 1.8 5.1 1.4 15.2-.8 25.9-2.4 11.1-2.5 20.3-.5 32.6 1.1 6.7 1.5 17.8 1.5 43.8 0 29.5.2 35.6 1.6 39.8 1.3 3.8 1.5 7.2 1.1 13.5-.4 7.7-1 9.4-6 19.7-3.1 6.1-7 13.6-8.7 16.4l-3 5.3h-8.6c-10.4 0-11.7.6-24.2 11.6-9.9 8.7-16 12.4-20.4 12.4-1.5 0-5.5.9-9 2.1-3.4 1.1-10.8 2.4-16.4 2.8-8.7.7-10.9 1.3-16.1 4.2l-6.1 3.4-2.3-2c-1.2-1.1-5.7-6.2-9.9-11.3l-7.7-9.3-.6-11.2c-.3-6.2-1.3-15.9-2.2-21.7-2-12.9-1.6-16.9 3.8-37l4.1-15.5.1-61.5.2-61.5 2.7-10c1.5-5.5 3.4-11.4 4.4-13.1.9-1.7 5.3-6.3 9.7-10.1 4.4-3.8 10.6-10 13.9-13.7 5-5.8 5.8-7.1 5.4-9.9-.3-1.7-.8-3.9-1.1-4.7-.7-1.5 2.1-3 29.3-15.8 6.4-3 16.4-9.1 25.5-15.5 9.5-6.8 15.9-10.7 17.5-10.7 1.4 0 4.6 1 7 2.2zm44.6 160.3c3.8 6.6 5.2 21.7 3.4 36.8-.8 6.4-1.5 23.1-1.6 39.2-.3 28.8-1.6 49.1-3.9 60.5-1.2 6-1.3 4.8-1.2-17.5.1-55.3-.1-61.4-2.5-74.3-2.2-12.2-2.2-12.4-.5-24.5 1-6.7 1.7-15.3 1.7-19 0-7.7.7-7.8 4.6-1.2zM864.1 2133c-1.3 5.9-1.2 15.3.5 33.7.5 5.2.2 9.8-1.1 16.3-1.9 9.7-1.6 22.2.7 27.7.7 1.9 1.2 22.8 1.4 67.3.3 59.7.1 65.5-1.7 77.2-1.2 7.8-1.9 17.8-1.9 26.1 0 9.8-.6 16-2.1 23.3-2.6 12.2-2.2 19.2 2.1 36.5 2.4 9.4 3.3 16.1 4 27.9.5 9.5 1.4 17.2 2.4 19.9 2.6 7 2.1 18-1 25.4-2.3 5.5-2.5 6.9-1.8 12.2 1.2 8.5.7 21.7-1.2 31-2.4 11.8-1.6 21.8 2.4 29.6 3.8 7.4 4.1 12.9 1.2 21.4-2.7 7.8-2.5 10.6 1 16.8 4.1 7.3 4.1 12.8 0 18.8l-3 4.4.1 15c0 11.2.4 16 1.5 19 5.7 14.4 5.7 14.4 6.1 33 .4 15 .2 20.1-1.5 30.5-3.5 21.3-3.7 26.5-1.3 34.4 1.8 5.7 2.1 9.4 2.1 22.3 0 11.4.4 17 1.6 21.1 1.4 4.8 1.6 8.1.9 20.7-.4 8.2-1 28.9-1.2 46-.2 17-.5 34.2-.5 38-.1 6 .3 7.8 2.5 11.6 2.5 4.3 2.7 5.3 2.7 17 0 8-.5 14.1-1.5 17.3-.8 2.6-1.9 8.5-2.5 13-.6 4.5-2.1 12-3.5 16.7-1.4 4.9-2.5 11-2.5 14.6 0 7.2 1.1 8.3 7.9 8.3 2.3 0 5 .5 6 1.2 1.6 1 3.1.7 8.3-1.5 6.1-2.5 16.3-4 36.8-5.4 6.4-.4 6.6-.3 11.4 3.6 3.9 3.4 5.6 4.1 9 4.1 2.3 0 5.5-.9 7.4-2 1.8-1.1 4.1-2 5.2-2 1.9 0 2-.7 2-9.4 0-7.1-.7-11.8-2.7-19.2l-2.7-9.9-.1-58c0-56.6-.1-58.2-2.3-66.1-3-11.2-4.5-26.1-3.7-37.2.7-10.9 1.5-13.5 6.6-22.2 2.1-3.6 4.9-10 6.3-14.2 2.3-6.6 2.6-9.4 2.6-20.5 0-17.5-1-22.6-7.4-36.2-6.2-13.4-6.3-13.7-7.6-29.7-.5-6.7-1.6-15-2.5-18.5-1.7-7.4-2.1-40.7-.5-47.6 2.2-9.3 3.2-19.7 4-38.8.7-16.6 1.3-21.9 3.5-31 2.6-10.2 2.8-13.3 3.8-43.5 1.2-42.9 1.2-43.6-.8-50-1.1-3.4-2-11.2-2.5-20.5-.8-15.5-1.6-18.6-7.4-32-2.4-5.6-2.6-7.1-2.6-21 0-12.4.6-18.8 3.4-36.5 3.8-23.4 6.1-47.8 6-63.5 0-7.7-.5-11.7-2.3-17.4-2.3-7-2.4-8.5-1.9-26.5.4-14.1.2-20.4-.8-24.1-.7-2.8-1.3-6.5-1.4-8.3 0-1.8-1.1-5.4-2.5-8-1.4-2.6-2.5-5.6-2.5-6.8 0-1.2-1.2-4.3-2.6-7-1.8-3.4-2.4-5.8-2.1-8 .4-2.6 0-3.7-2.6-6.1-1.8-1.7-4.2-3.7-5.4-4.5-1.3-.8-3.6-3.3-5.2-5.5-2.2-3.1-4.3-4.5-9.2-6.2-16-5.8-25.1-12.2-29.7-20.9-1.8-3.3-3.2-6.7-3.2-7.5 0-1.7-5.5-6.7-7.4-6.7-.7 0-3.2-2-5.5-4.5s-4.8-4.5-5.4-4.5c-.7 0-1.9 2.6-2.6 6zM1000.7 2272.4c-.6 9.3-1.1 12.1-3.1 15.7-1.9 3.5-2.5 6.4-2.9 13.9-.3 5.2-1.1 11.6-1.8 14.2-1.8 6.4 0 25.8 3.1 34.3 1.6 4.2 2.5 9.8 3.1 19 .5 7.1 1.7 18.6 2.6 25.5 1.9 13.3 2.4 42.1.9 51.7-.7 4.4-.5 5.9 1.8 10.9 3.3 7.1 2.9 11.1-1.7 18.1-3.2 4.8-3.2 4.8-4.1 23.3l-.9 18.6 3.8 9c6.4 15.2 7.4 18.8 8.5 30.5 1.1 12.1 1 13.9-2.2 23.8-1.7 5.4-1.9 7.1-1 11.7.8 3.9.8 7 .1 11.1-.7 3.3-.9 9.4-.5 14.1.5 7.1.3 9-1.4 12.9-2.4 5.5-2.5 8.8-.4 13.8 1.2 3 1.3 4.7.5 8.7-.6 2.7-1.5 5.7-2 6.6-.5 1-.6 9.6-.1 20.2.6 16.2 1 19.4 3.3 25.8l2.6 7.4-.3 31.1c-.3 25.4-.7 32-2 35.6-2 5.4-2 10.6-.1 16.1 2.3 6.5 1.9 12.3-1.4 19.8-2.7 6.3-2.9 7.8-3.4 24.2l-.6 17.5 3.9 7.2c2.2 4.1 4.3 9.8 4.9 13 .6 3.2 1.1 23.3 1.2 44.8.2 36.6.1 39.6-2 49-1.2 5.5-2.8 12.2-3.7 14.8-1.2 3.6-1.4 6.6-1 11 .4 3.4 1 8.6 1.3 11.4.3 3 1 5.3 1.6 5.3.7 0 5.7.7 11.1 1.5 5.5.8 11.3 1.5 13 1.5 1.7 0 4 .7 5 1.5 2.4 1.8 10.2 1.9 24.6.3 9.2-1 11.5-.9 16.6.4 5.6 1.6 28.8 3.4 36.4 2.9 1.9-.1 6.9-.8 11-1.6 10.6-1.9 64.5-3.9 69-2.6 5.5 1.7 12.7 1.3 23.8-1.4 11.8-2.8 18.5-3 32.7-1 15.9 2.3 16.9 2.2 19-2.4 1.5-3.3 1.5-4.7.6-9.2-.6-2.9-1.6-5.7-2.1-6.3-1.6-2-4-14.7-4-21.5 0-4.8-.6-8.3-2.1-11.7-1.9-4.3-2.1-6-1.6-15.4.5-9.1 1.9-21.6 4.3-39.9.6-4.9-1-5-2.1-.1-.8 3.8-2.1 4.5-4.8 2.7-3.6-2.3-18.5-3.1-25.4-1.3-4.6 1.2-8.2 1.3-16.9.7-12-.9-13.4-1.4-17.8-6-1.7-1.7-3.9-3.1-5.1-3.1-1.1 0-5.4 1.6-9.5 3.6-10.2 4.9-15 6.5-17.2 5.8-1-.3-3-2.3-4.4-4.5l-2.4-3.9-6.8.1c-3.7 0-10.5.8-15.2 1.8-7.3 1.5-9 1.6-12.4.4-5.4-1.8-7.7-1.7-19.5 1.3l-10.4 2.7-1.8-2.4c-1-1.3-2.4-3.1-3.2-4-.8-1-2.8-4.6-4.3-8-3.3-7.4-3.7-15-1-21.3 2.2-5.2 2-14.7-.5-22.6-2.9-9.2-3.5-22.9-1.5-30.6 2-7.5 2-12.9.2-18-2.4-7.1-2.8-15.7-1-22.6 1.6-6.4 1.6-8.6-.2-34.6-.7-10.2 0-11.3 3.8-6 1.7 2.5 2.4 5 2.7 10.3.3 5.6.8 7.6 2.8 10 2.8 3.3 2.8 6.1-.1 19-2.5 11.2-2.1 21.8 1.5 35.3l3 11.7-.7 27.6c-.5 19.4-.3 28.2.4 29.5.9 1.4 1.1-2 1.2-14 0-12.5.4-17.5 1.9-23 1.3-4.9 2.1-12.2 2.5-23.2.6-14.2.4-16.5-1.1-19.2-1.6-2.9-1.6-3.3.1-8.9 1-3.2 2.9-8.6 4.2-12 2-4.9 2.5-8.2 2.7-16.7l.2-10.5 3.5-3.6c3.9-4.1 6.7-5.7 13.5-8.1l4.8-1.6 4.3 4.3c4.8 4.7 3.5 4.5 30.4 6.9 16 1.4 24.7 2.8 27.7 4.4 1.6.8 5.5 1.7 8.8 2.1 3.3.4 7.3 1.7 8.8 2.7 3.1 2.2 4.8 2.2 25.2-.2 9.7-1.1 9.9-1.1 11.5 1.1l1.7 2.1 4.1-2.3 4.1-2.4 2.8 2.3c5.5 4.4 7.2 5.4 8.3 4.7 1.6-1 1.2-5.6-1-12-2.3-6.5-2.7-24-1-37.3.8-5.9.7-8.1-.5-10.9-1-2.3-1.5-6.9-1.5-13.2 0-16.5-4.1-25-12.7-26.6-2.1-.3-4.8-1.3-6.1-2.1-1.6-1-3.6-1.3-7.1-.8-4.4.6-5 .4-7.5-2.2-2.4-2.7-3.4-3-14.4-4-15-1.5-35.9-5.2-39.4-7-3.6-1.9-10.7-1.8-15.4.2-6.3 2.7-15 1.3-22.6-3.6-6.1-4-6.2-4-16.2-4-5.6 0-13-.5-16.4-1-5.7-.8-6.9-1.4-11.7-5.9-2.9-2.7-6.4-5.3-7.8-5.6-2.2-.6-2.5-1.3-3.1-7.5-.3-4.2-.2-8 .5-9.7.6-1.5 2.2-10.9 3.6-20.8 2.7-19.8 2.6-25.4-.8-39.1l-2.1-8.1 2.6-8.2c3-9.4 3.3-16.5 1.2-29.1-2.5-15.1-3-32.7-1.1-42.3 1.7-8.4 1.8-8.5 5-9.1 8.9-1.7 13.1.7 24.7 14.6 5.5 6.5 7.2 7.2 21.8 8.8 8.4.9 11.5 1.7 15.7 4.1 4.9 2.7 6 2.9 16.1 2.9 11.9 0 12.2.1 20.4 7.7l4.7 4.3 6.8-.6c4.8-.4 8.6-.1 12.9 1 7.6 2 15.1 2 18.4.1 3.6-2.1 4.5-1.9 6.2 1.8 2.9 6.1 3 8.8.3 16.6-3 9-3.1 12.4-.5 17.6 1.1 2.1 2.3 6.1 2.6 8.7.6 4.6 2.4 7.8 2.4 4.3 0-.8 1.2-3.9 2.6-6.7 2.6-5.1 2.6-5.4 1.9-18.4-.4-7.2-.3-13.4.2-13.7.4-.3 2.9-.8 5.4-1.2l4.7-.7-.6 20-.5 20.1 2.9 2.4 2.9 2.5v13.9c0 9 .5 15.1 1.3 17.6 1.1 3.1 1.2 5.7.2 14.3-.7 5.8-1 10.8-.7 11 2.7 2.7 4.9-22.6 2.9-33.6-.5-3.2-.6-8.3-.2-12 .5-3.6 1.6-12.8 2.4-20.5.9-7.7 3.1-19.9 4.8-27l3.1-13-1.4-13c-2-18.4-1.7-52.4.6-60.7.9-3.5 1.5-8.3 1.3-10.8-.3-4.5-.3-4.5-4.6-5.1-5.9-.8-7.1-2.8-7.2-11.9 0-4.5-.5-8.1-1.2-8.8-.8-.8-5-1.2-12.4-1.2-11.2 0-11.2 0-11.8-2.6-1-3.8-9.6-7.4-19.4-8.1-7-.5-8-.8-10.7-3.8-2.7-2.9-3.7-3.2-10.5-3.8-9.8-.8-18.4-3.9-24-8.6-5.8-4.9-8.4-6.1-20.5-10-5.5-1.8-11.3-3.9-13-4.6-3.9-1.7-22.1-15.3-25.9-19.4-3-3.1-3-3.1-13.3-3.1-9.7 0-10.3-.1-10.3-2 0-1.2-.9-5.8-2.1-10.4-2.3-9.2-2.7-9.6-10.4-9.6-7.2 0-11.3-1.8-13.9-5.8-3.1-5-8.8-9.2-13.8-10.4-2.2-.5-6.6-2.8-9.7-5.2-3.7-3-7.9-5.1-12.6-6.5-5.4-1.6-8.5-3.3-13.4-7.5-3.5-2.9-7-6.6-7.8-8-1-1.9-2.2-2.6-4.2-2.6h-2.8l-.6 11.4zm101.3 491.1c0 .8-.4 1.5-1 1.5-.5 0-1-.7-1-1.5s.5-1.5 1-1.5c.6 0 1 .7 1 1.5zM1952 2274.1c-1.5.7-6.1.8-11.7.4-9-.7-9.3-.6-15.1 2.5-3.3 1.7-7.4 4.9-9.1 7-2.9 3.7-3.4 3.9-10.8 4.5-4.3.4-9.4 1.5-11.3 2.5-1.9 1-8 3.7-13.5 6-10.7 4.5-42.8 24-50.1 30.3-2.4 2.1-5.1 5.4-6.1 7.4-1.8 3.9-5.8 6.8-11.6 8.4-2.1.5-6.7 2.8-10.3 4.9-3.5 2.2-9.6 5.6-13.6 7.6s-8.4 4.6-9.8 5.9c-3.4 3-27.5 15.2-32.7 16.5-2.7.7-5.9 2.6-8.5 5.1-2.4 2.3-9 6.5-14.9 9.4-5.8 2.9-11.1 6-11.8 6.9-.8.9-2 1.6-2.9 1.6-1 0-.7.7 1.1 2.4 3.5 3.2 4.3 9.6 2.7 21.5-.7 5.3-1.6 17.5-2 27.1-.4 9.6-1.3 21.8-2 27-1.4 10.1-1 15.8 2.5 37 .8 5.2 1.9 19.9 2.5 32.7l1 23.1-3.7 9.4c-4 10.3-4.3 13.8-2.8 34.9.7 9.5.5 11.3-1.4 16.8-2.6 7.6-2.6 9.2-.1 14.1 2.9 5.8 4.7 13.7 6.4 29.1 1 8.4 2.3 15.4 3.6 18.3 2.9 6.8 2.5 11.6-2.1 26.7-4.6 14.8-4.8 17.7-3.5 39.9.7 10.4 1.3 14.1 2.7 16.1 1 1.4 1.6 3.5 1.3 4.5-.3 1.1.2 5.1 1 8.8 2.3 9.5 2.2 40.8 0 51.4-1.1 4.8-1.6 11.3-1.4 17.2.3 15.4.3 37.1-.2 76.5-.4 33.3-.2 37.4 1.3 41 2.9 6.7 4.3 18.6 3.6 30.7-.6 10.2-.5 10.9 1.1 10.3 3.8-1.6 5.4-1.7 7.5-.7 1.2.6 3.1 1.2 4.2 1.4 1.3.2 2.2 1.3 2.5 3.3.4 2.6 1 3 4.3 3.3 2.2.2 10.4-1.3 18.5-3.3l14.6-3.7 7.3 2.2c5.8 1.7 8.9 2 15 1.6 16.4-1.1 24.1-2.1 25.6-3.5 2.2-1.8 2.2-9.3.1-17.5-.9-3.3-1.6-9.1-1.6-12.7-.1-5.6.4-7.5 3-12 3.8-6.7 6.2-14.9 6.2-20.8 0-2.5-.9-9.8-2-16.1-1.2-6.3-2.2-13.8-2.4-16.6-.3-4.1-1.2-6.2-4.8-11.1-6.1-8.3-7.2-12.8-6.4-26.1.3-5.9.7-31.9.8-57.7l.3-47 3.3-9c3.2-8.4 4.3-12.2 5.6-18.6.5-2.2 1.5-2.8 7.1-4.4 6.3-1.7 9-1.7 18.3.1 2.8.5 4.2 0 9.1-3.5 5-3.5 8.1-4.9 8.1-3.9 0 .2 1.4 4.3 3 9.2 1.9 5.6 3 11 3 14.5 0 3.1.5 8.5 1 12.1.6 3.6 1.6 11.1 2.4 16.7 1.1 8.3 2.4 12.6 7.1 23.5 3.1 7.3 7.4 16.2 9.6 19.8 2.1 3.6 4.3 8.7 4.8 11.5 3.4 16.3 5.2 25.9 6.2 32.5 1.1 7.7 2 9.8 8.2 21 5 9.1 11.4 26.4 14.3 38.9 3.2 13.7 4.7 17.4 9.7 24.1l4.2 5.5.3 21.2c.2 14.8.6 21.3 1.4 21.3.6 0 2 .8 3 1.7 1.6 1.4 2.3 1.5 3.8.5 2.9-1.8 4.7-1.5 14.2 1.8l8.5 2.9 32.2.4 32.2.5-1.4-2.2c-.8-1.1-1.7-5.1-2-8.8-.3-3.8-1.1-7.8-1.8-8.9-.6-1.2-1.4-7.8-1.7-14.6-.3-6.8-1-13-1.6-13.9-.6-.8-3.4-2.1-6.1-2.8l-5-1.2-.6-9c-.5-8-1.8-16.6-5-31.9-.6-2.8-2.9-8.2-5.2-12.1-2.3-3.9-5.5-9.5-7.2-12.3-1.6-2.9-5.1-8.7-7.7-12.8-2.6-4.2-6.2-11.1-7.9-15.2-1.7-4.2-4.8-11-6.9-15.1-4.9-9.9-5.8-12.8-7-23.8-1.2-10.9-2.6-14.8-7.5-20.4-4.3-5.1-4.5-8.2-.9-19.3 1.6-5 2.3-9.1 2-11-.4-1.6-3.4-8.5-6.8-15.5l-6.2-12.5-.7-13c-.4-10.2-1-14-2.8-17.9l-2.2-5 3.9-4c2.1-2.3 4.5-5.2 5.3-6.5 1.4-2.3 2-2.4 11-2.2 10.8.2 13.6-.6 19.7-5.6l4.3-3.5-2-2.2c-1.2-1.2-2.1-2.6-2.1-3.2 0-1.1 12.9-7.4 15.1-7.4.9 0 3.1-1.3 4.8-2.9 2.6-2.4 3.1-3.7 3.1-7.3 0-2.3-.7-5.2-1.5-6.2-2.1-2.8-1.9-4.9 1.1-7.7 1.4-1.3 3.4-3.9 4.6-5.7 2.1-3.5 2.1-3-.3-18.9-1.1-7.3-1-8.9.6-14.2 1.5-5.1 1.7-7.8 1.1-18.3-1-16.9-.9-19 1.4-26.6 2-6.2 2.1-8.8 1.9-36.2l-.2-29.5 3.6-13.5c5.9-22.5 5.8-35-.2-47.5l-2.8-6 .2-23.5c.1-20.2.5-24.9 2.4-33.5 1.6-7.1 2.1-11.9 1.8-16.5-2.4-31.8-2.5-32.6-5.1-39.4-1.4-3.7-2.6-8.5-2.6-10.5s-.3-6-.6-8.9c-.6-4.4-1.1-5.3-3-5.8-2.8-.7-2.8-.5-1-3.9 1.6-3.1.9-6.9-2.4-11.5-3.1-4.4-6-6-10.5-6-2.3 0-4.5-.4-5.1-1-1.5-1.5-15.3-4.9-19.8-5-3.3 0-4.5-.7-7.6-4-4-4.3-4.2-4.4-8-2.9zm-210.4 109.4c-1.1.8-2.4 1.5-3 1.5-.5 0-.1-.7 1-1.5 1-.8 2.4-1.4 2.9-1.4.6 0 .1.6-.9 1.4zm160.2 44.5c1.4 1.4 2.2 3.3 2.2 5.5 0 2.8.6 3.7 2.9 4.9 5.1 2.7 7 10.8 4.6 19.8-7.4 28.1-7.8 31-6.8 55.7.9 22.3 1 22.7 4.3 30.9l3.3 8.3-2.2 11.2c-1.7 8.8-2.1 14.8-2.1 27.7v16.6l-5.7 5.5c-7 6.7-17.1 14.5-20.8 15.9-1.4.5-6.4 1-11 1h-8.4l-5.3 4.5c-13.1 11-12.9 11-26.5 11.3-12 .4-12.3.3-12.3-1.8s-.1-2.1-2.9-.4c-3.1 1.9-5.8 1.4-6.8-1.2-.3-.9.2-5.1 1.2-9.3 2.6-10.7 2.5-25.8-.3-33.2-1.7-4.9-1.9-6.9-1.3-14.5.4-4.9 1.4-10 2.2-11.4 1-1.8 1.5-6.5 1.6-16.5.1-7.7.4-26.8.6-42.5.5-27.3.4-28.6-1.5-31.8-2.3-3.8-2.2-7.2.8-20 1.4-6.5 1.8-7.1 3-5.5.9 1.2 1.3 4.7 1.4 9.9 0 5.2.6 9.6 1.6 12 1.4 3.3 1.5 5.5.8 13.9-1 11.5-.9 60 .2 78.5.7 11.2.9 11.9 1.5 7 .4-3 .7-10 .8-15.5.1-10.5 2.3-21.9 6-31.3 1.8-4.5 2.1-7.5 2.1-21.1 0-13.7-.3-16.5-2-20.2-1.5-3.4-2-6.6-2-14 0-12.2 1.3-19.1 4.5-23.2 1.3-1.8 3.1-4.9 3.9-6.8 1.3-3.1 2.1-3.7 6.8-4.8 3.4-.7 8.1-3 12.7-6.1 11.2-7.6 16.5-9.3 31.1-10 6.9-.4 13.2-.7 14.1-.8.8-.1 2.5.7 3.7 1.8z"/><path d="M1817.2 2596.6c-.6 2.1-1.4 5.9-1.7 8.4-.3 2.5-.8 5.8-1 7.5-1 6.6 1.4-.4 3-8.8 1.8-9.5 1.6-13.4-.3-7.1zM806.4 2335c0 5.8.1 8.1.3 5.2.2-2.8.2-7.6 0-10.5-.2-2.8-.3-.5-.3 5.3zM1385.5 2407.1c-4.9.5-13.4 2-18.7 3.2-5.5 1.4-10.1 2-10.6 1.5s-4.1-.3-8.3.3c-4.1.7-9.6 1.5-12.4 1.8l-5 .6.3 4c.2 2.2.8 5.8 1.4 8 1.6 6.4 1.2 9.5-2.6 18.3-4.2 9.7-4.6 15-1.5 17.8 4.5 4 4.9 6.8 4.9 34.2 0 24.5.1 26.1 2 28.5l2 2.6-3.5 10.5c-3.5 10.5-3.5 10.6-3.5 28.6 0 14.3.3 18.8 1.6 21.8 2.5 5.8 5.4 18.8 5.4 24.5.1 2.9.7 7 1.5 9.2 2.2 6.1 1.9 14.3-.9 21.6l-2.4 6.4 3.5 6.2c2.6 4.8 3.5 7.8 4 13.3.6 6.6.4 7.4-3.1 14.4-2 4.1-3.6 8.1-3.6 8.9 0 .8-1.2 6.4-2.6 12.4-3.1 12.9-3.8 26.9-1.4 29.8 1.8 2.1 2.8 24 3.4 75.5.3 18.5 1 35.3 1.6 39 2.2 11.8 2.3 19.8.5 30.9-1.1 7-1.5 12.7-1 16.2.3 3 1 20.7 1.4 39.4.5 22 1.3 36.1 2.1 39.8 1.1 4.7 1.1 7 .2 11.6-1.6 7.7-1.5 11.7.4 16.9 1.5 3.7 1.5 4.8.4 8.2-.9 2.8-1 5.2-.4 8.2l.9 4.3 9-.3c5-.2 11.4-.7 14.2-1.2 2.9-.5 12.8-1.2 22-1.6l16.8-.6 4.9 3.4c2.7 1.8 5.5 3.7 6.3 4.3.8.6 2.1.4 4-.6 1.6-.9 5.2-2.4 8.1-3.3 4.6-1.6 5.2-2.1 5.2-4.6 0-1.8 1.4-4.5 4-7.6 6-7.3 8.2-12.6 8.8-20.9.6-8.9-.7-12.8-6.2-20l-4.3-5.5-.6-13.2c-.4-7.6-.2-16.1.4-19.8.5-3.6 1.2-12.9 1.6-20.8.4-12 .3-15-1.3-19.5-2.3-6.7-2.2-14.8.2-21.7 2.1-6.2 2.4-16.8 1-35.7-.7-8.4-.6-12.7.5-17.5.8-3.9 1.4-12.4 1.4-22.3v-16l17-3.7c13.6-3 17.7-3.5 20.5-2.8 1.9.6 5.3 1 7.5 1 5.5.1 9.9 4 12.4 11.1 3.4 9.9 7.3 17.1 12.3 22.6 2.7 3 5.4 6.6 6 8.1.6 1.5 1 7 1 12.3-.1 9.5 0 9.7 2.9 12.5 4.7 4.4 5.8 7.5 6.5 17.1.6 8.4.8 9.1 5.4 15.8 7.5 11.1 10.8 17.5 12.4 24.6.8 3.7 2.4 8.2 3.5 10 5.6 9.6 9.7 22.3 12.1 37.7 1.4 8.5 5.1 14.8 10.5 17.4 2.5 1.2 4.9 3.4 6 5.4 1.6 3 1.7 3.9.5 9.1-2.1 9.5-2.3 14.5-.6 21 .9 3.3 1.6 7.5 1.6 9.2 0 2.8.3 3.1 3 3.1 1.7 0 4.7.7 6.7 1.5 1.9.8 4.6 1.5 5.9 1.5 1.2 0 2.9.7 3.8 1.5 1.2 1.3 7.9 1.5 47 1.5h45.6v-2.2c0-1.1-1.1-3.6-2.6-5.5-1.4-1.8-2-3.3-1.5-3.3 1.6 0 1.3-6.3-.5-11.7-.9-2.6-3.5-7.3-5.9-10.4-3.4-4.3-4.6-6.9-5.5-11.7-.6-3.4-1.8-7.8-2.6-9.7-.8-2-1.8-7.6-2.3-12.5-1-10.7-5.2-20.5-12.5-29-5.1-5.9-7.6-10.2-9.6-16.5-.7-2.2-2.5-6.5-4.1-9.6-1.5-3-3.3-8.4-3.9-12-3.1-17.1-12.6-39.4-43.6-101.4-4.7-9.4-8.5-17.3-8.4-17.6 0-.4 2.8-1 6.2-1.3 6.9-.8 8.8-1.6 13.6-5.7 2.4-2.2 4.3-2.9 7.4-2.9 3 0 5.2-.9 8.8-3.5 2.6-1.9 5.5-4.6 6.3-5.8.8-1.3 3-2.8 4.9-3.3 2.4-.7 5-3.1 9.6-8.9 3.5-4.4 7.8-9.6 9.5-11.5l3.2-3.5.3-15.4.3-15.4 6.6-9.4c6.8-9.8 10.3-17.3 10.3-22.1 0-1.5-1.3-5.5-3-9-3.9-8.3-4.5-13.7-2.6-26.1 2-13.1 2-18.1 0-27.3-.9-4.5-1.5-12.5-1.6-20.8 0-30.7-1.9-70.3-3.4-73.9-.8-2-1.2-4.6-.9-5.8.4-1.6-.6-3.7-3.4-7.4-2.7-3.6-4.5-7.4-5.6-12-1.6-6.5-2.2-7.3-10.6-15.9-8.6-8.7-9-9.3-9.5-14.3-.9-9.1-1.2-9.7-5.7-11.7-2.3-1.1-5.6-2-7.2-2-2.3 0-4.1-1.1-7-4.1-6.3-6.4-7.8-6.9-22.2-6.9-16.7 0-31-1.6-40.3-4.5-6.4-2.1-8.9-2.3-17-1.9-5.2.2-12.6.9-16.5 1.5-7.3 1.1-11.7.2-22.7-4.5-4.7-2-11.8-2-26 0-14.8 2.1-34.5 1.4-43.8-1.5-7.1-2.3-19.5-2.6-36.5-1zm-29.5 8c0 1.5-.5 2-2.2 1.7-2.7-.4-3.5-2.5-1.1-3.1 3.1-.8 3.3-.7 3.3 1.4zm137.6 109.4c1.4 1.1 5.2 1.4 15.9 1.5 17.8 0 31.6 2.7 35.6 6.9 4.1 4.4 8.9 17 8.9 23.5 0 3.1.4 5.6.9 5.6 2.2 0 3.4 7.5 2.7 17.9-2.3 39.5-5.9 80.2-7.7 86.6-1.8 6.7-2.4 7.6-12.8 18.3l-10.8 11.2h-15c-17.5 0-22.8-.8-32.5-5.1-6.4-2.8-8-3.1-16.8-3l-9.8.1-5.1-5.7c-2.8-3.2-5.1-6.3-5.1-6.9 0-.7-1.3-2.6-3-4.4-3.9-4.2-4.5-8.3-3.1-21 1.2-10 1.1-11.3-1-20.1-2.7-11.3-2.9-19.9-1.2-51 1.1-19.2 1.6-23.9 3.8-30.6 2.4-7.8 4.8-12.3 5.9-11.2.3.3.1 2.1-.4 4-.6 1.8-1.2 13.7-1.4 26.4-.3 14.5-.1 20.2.3 15.5.5-4.1.9-10.9 1-15 .1-4.7.9-9.7 2.1-13.3 1.1-3.1 2-7 2-8.7 0-4.1 2.5-9.9 5.8-13.3 4.8-5.1 5.1-5.2 28.7-8.6 8.9-1.3 9.9-1.2 12.1.4zm-73.1 300.6c1.7 14.9 1.7 15.8 0 22.8-1.6 6.5-1.6 8.9-.6 24.2l1.1 17-2.5 3.7c-3 4.5-3.3 10.2-.6 14.6 4.1 6.6 5 25.4 3.4 70.8-.5 14.1-1.1 26-1.4 26.3-.4.3-1.8.1-3.3-.5-2.5-.9-2.7-1.3-2-4.3.4-1.7.8-13.8.9-26.7.1-12.9.6-24.9 1-26.7.6-2.5.3-3.5-1.7-5.5-2.4-2.4-2.7-4.3-3-18.8 0-3.6.5-10.3 1.2-14.9 1.2-7.6 1.1-8.7-.5-11.7-1.9-3.6-1.5-6.5 2.7-20.8 2-6.5 2-7.7.8-23.5-1.7-23.2-1.7-33.8-.1-39.4.9-3 1.7-4.4 2.1-3.5.4.7 1.5 8.3 2.5 16.9zM2194 2882.5c0 .5.5 1.7 1 2.5s1 1 1 .5c0-.6-.5-1.7-1-2.5s-1-1.1-1-.5z"/></svg>